<?xml version="1.0" encoding="UTF-8"?>
<svg version="1.1" xmlns="http://www.w3.org/2000/svg" width="1029" height="174">
<path d="M0 0 C17.49 0 34.98 0 53 0 C53.495 4.455 53.495 4.455 54 9 C53.34 9 52.68 9 52 9 C52.495 13.455 52.495 13.455 53 18 C52.34 18 51.68 18 51 18 C51.185625 19.11375 51.37125 20.2275 51.5625 21.375 C52 25 52 25 51 27 C51 28.94412205 51.00236254 30.88883954 51.0625 32.83203125 C50.99096 35.31357502 50.50152038 37.57041237 50 40 C49.83225253 41.68546267 49.68734156 43.3733173 49.5625 45.0625 C49.22034731 49.15729504 48.66438801 53.14354559 47.9375 57.1875 C47.10407602 61.89389424 46.91006563 66.23347852 47 71 C46.67 71.33 46.34 71.66 46 72 C46 73.134375 46 74.26875 46 75.4375 C46 79 46 79 45 81 C44.95571559 82.35344237 44.96069412 83.7089039 45 85.0625 C45 86.361875 45 87.66125 45 89 C44.67 89.33 44.34 89.66 44 90 C43.7889782 92.83707088 43.62392187 95.65897646 43.5 98.5 C43.13513514 106.86486486 43.13513514 106.86486486 42 108 C42 109.134375 42 110.26875 42 111.4375 C42 115 42 115 41 117 C40.6456294 119.64400666 40.33724572 122.27722438 40.0625 124.9296875 C39.97750244 125.71642853 39.89250488 126.50316956 39.80493164 127.31375122 C39.53297067 129.83379181 39.26604158 132.3543281 39 134.875 C38.73360016 137.38848734 38.46604775 139.9018275 38.19506836 142.41482544 C38.02644899 143.97936943 37.8604922 145.54420323 37.69750977 147.10934448 C37.33166427 150.51141005 36.83227399 153.67090402 36 157 C18.51 157 1.02 157 -17 157 C-18.12344088 151.38279561 -18.12344088 151.38279561 -17.55813599 147.94395447 C-17.43674696 147.16415254 -17.31535793 146.38435061 -17.19029045 145.58091831 C-17.05160105 144.73300189 -16.91291164 143.88508547 -16.77001953 143.01147461 C-15.45935576 134.43697968 -14.35376801 125.85692892 -13.39013672 117.23657227 C-13.25316942 116.01236037 -13.11620213 114.78814848 -12.9750843 113.52683926 C-12.61546262 110.29381977 -12.25804466 107.06056684 -11.90174246 103.82718015 C-11.52310355 100.39849184 -11.14039493 96.97025773 -10.75808716 93.54197693 C-10.03796927 87.07959912 -9.32085348 80.61689259 -8.60512841 74.15402693 C-7.31988864 62.54880638 -6.03087999 50.94400519 -4.73853886 39.33957332 C-4.3601166 35.94051068 -3.98252161 32.54135998 -3.60677719 29.1420002 C-3.18958907 25.36868222 -2.77049993 21.59557957 -2.35107422 17.82250977 C-2.22847229 16.70823105 -2.10587036 15.59395233 -1.97955322 14.44590759 C-1.86471588 13.41623871 -1.74987854 12.38656982 -1.63156128 11.32569885 C-1.53313871 10.43671182 -1.43471615 9.54772478 -1.33331108 8.63179874 C-0.96751253 5.74348146 -0.47862939 2.87177632 0 0 Z " fill="#FEFEFD" transform="translate(33,9)"/>
<path d="M0 0 C17.49 0 34.98 0 53 0 C53 16 53 16 52 18 C51.95571559 19.35344237 51.96069412 20.7089039 52 22.0625 C52 23.361875 52 24.66125 52 26 C51.505 26.495 51.505 26.495 51 27 C51 28.32 51 29.64 51 31 C51 32.32 51 33.64 51 35 C50.67 35.33 50.34 35.66 50 36 C49.59286115 38.85591558 49.24394745 41.69551386 48.9375 44.5625 C48.84662109 45.34947266 48.75574219 46.13644531 48.66210938 46.94726562 C48.23657125 50.82830128 47.95596284 54.62126356 48.00390625 58.52734375 C48 62 48 62 47 63 C46.70015465 64.90052636 46.46032925 66.81058647 46.24609375 68.72265625 C46.11396484 69.90150391 45.98183594 71.08035156 45.84570312 72.29492188 C45.71099609 73.53822266 45.57628906 74.78152344 45.4375 76.0625 C45.22963867 77.8868457 45.22963867 77.8868457 45.01757812 79.74804688 C44.18693985 87.26077593 44.18693985 87.26077593 43.97265625 94.80859375 C43.98167969 95.86175781 43.99070313 96.91492188 44 98 C43.67 98.33 43.34 98.66 43 99 C42.73534257 100.66202454 42.53102994 102.33371205 42.3515625 104.00708008 C42.23474121 105.07521439 42.11791992 106.14334869 41.99755859 107.24385071 C41.87461426 108.40732529 41.75166992 109.57079987 41.625 110.76953125 C41.49561035 111.95721603 41.3662207 113.14490082 41.23291016 114.36857605 C40.81779768 118.18278185 40.4084593 121.99757639 40 125.8125 C39.59099831 129.61664778 39.18071726 133.42064123 38.76708984 137.22428894 C38.50936942 139.59565585 38.25440418 141.96732411 38.00244141 144.33930969 C37.88562012 145.41690048 37.76879883 146.49449127 37.6484375 147.60473633 C37.54708496 148.55214188 37.44573242 149.49954742 37.34130859 150.47566223 C37 153 37 153 36 157 C18.51 157 1.02 157 -17 157 C-16.38464715 146.53900156 -15.71187731 136.24954409 -14.52539062 125.86450195 C-14.38054733 124.5646788 -14.23570404 123.26485565 -14.08647156 121.92564392 C-13.69588105 118.42176548 -13.29984599 114.91852351 -12.90260124 111.41539407 C-12.48494569 107.72439069 -12.07220442 104.03283735 -11.65881348 100.34135437 C-10.96581023 94.1592766 -10.26946624 87.97758287 -9.57080078 81.79614258 C-8.76451045 74.66233504 -7.96246374 67.52806083 -7.16288805 60.39349777 C-6.30741391 52.76017885 -5.44946472 45.12713987 -4.59046745 37.49421668 C-4.34439525 35.30651781 -4.09871785 33.11877488 -3.85310364 30.93102455 C-3.39561909 26.85784023 -2.93528827 22.78498248 -2.47460938 18.7121582 C-2.33951462 17.50743866 -2.20441986 16.30271912 -2.06523132 15.06149292 C-1.93908951 13.95031601 -1.81294769 12.8391391 -1.6829834 11.69429016 C-1.57458885 10.73373876 -1.46619431 9.77318735 -1.35451508 8.78352833 C-0.98023539 5.8448152 -0.48702406 2.92214436 0 0 Z " fill="#FEFEFE" transform="translate(172,9)"/>
<path d="M0 0 C17.16 0 34.32 0 52 0 C52.495 4.455 52.495 4.455 53 9 C52.34 9 51.68 9 51 9 C51.185625 10.175625 51.37125 11.35125 51.5625 12.5625 C52.05485201 16.5997865 51.72620235 19.97287788 51 24 C49.8742853 30.72870378 48.86320472 37.16023585 49 44 C48.2866242 50.01273885 48.2866242 50.01273885 47.4375 52.9375 C46.97848964 55.10140598 46.97258811 56.97888518 47 59.1875 C47 60.445625 47 61.70375 47 63 C46.67 63.33 46.34 63.66 46 64 C45.7889782 66.83707088 45.62392187 69.65897646 45.5 72.5 C45.13513514 80.86486486 45.13513514 80.86486486 44 82 C44 83.134375 44 84.26875 44 85.4375 C44 89 44 89 43 91 C42.79282822 93.67021407 42.62622225 96.32595835 42.5 99 C42.13513514 106.72972973 42.13513514 106.72972973 41 109 C40.95537091 110.52017837 40.96095455 112.04216797 41 113.5625 C41.03785426 115.04118221 41.04629173 116.52155788 41 118 C40.67 118.33 40.34 118.66 40 119 C39.31549303 123.31071808 38.90927986 127.66143111 38.4375 132 C38.22963867 133.81177734 38.22963867 133.81177734 38.01757812 135.66015625 C37.30068507 142.15104013 36.83816712 148.47039518 37 155 C36.34 155 35.68 155 35 155 C35 155.66 35 156.32 35 157 C17.84 157 0.68 157 -17 157 C-16.37877402 146.43915842 -15.69169616 136.03277625 -14.52539062 125.54150391 C-14.378732 124.1941657 -14.23243748 122.84678782 -14.08647156 121.49937439 C-13.6957468 117.90275228 -13.29980294 114.30672394 -12.90260124 110.71081209 C-12.48531242 106.92626699 -12.07239919 103.14124396 -11.65881348 99.35629272 C-10.96579682 93.02040092 -10.26935937 86.6848924 -9.57080078 80.34960938 C-8.76356905 73.02838085 -7.96180412 65.7065689 -7.16288805 58.38442862 C-6.39122299 51.31315109 -5.61581796 44.24228855 -4.83866882 37.17161179 C-4.50893064 34.17101367 -4.18049353 31.17027737 -3.85310364 28.16942215 C-3.39745382 23.99484242 -2.93632999 19.82088529 -2.47460938 15.64697266 C-2.33951462 14.40341507 -2.20441986 13.15985748 -2.06523132 11.87861633 C-1.93908951 10.74632095 -1.81294769 9.61402557 -1.6829834 8.44741821 C-1.57458885 7.4619784 -1.46619431 6.47653858 -1.35451508 5.46123695 C-1 3 -1 3 0 0 Z " fill="#FEFEFD" transform="translate(103,9)"/>
<path d="M0 0 C0.86931152 0.01047363 1.73862305 0.02094727 2.63427734 0.03173828 C3.48199707 0.0367334 4.3297168 0.04172852 5.203125 0.046875 C6.28126465 0.06508301 7.3594043 0.08329102 8.47021484 0.10205078 C11.89396484 0.14330078 15.31771484 0.18455078 18.84521484 0.22705078 C24.12521484 12.10705078 29.40521484 23.98705078 34.84521484 36.22705078 C37.61647744 32.53203399 39.40631515 29.02884811 41.20068359 24.83642578 C41.50718338 24.13181213 41.81368317 23.42719849 42.12947083 22.70123291 C43.10218772 20.4619548 44.06753877 18.21958797 45.03271484 15.97705078 C45.69303766 14.45340323 46.35383975 12.92996328 47.01513672 11.40673828 C48.63072309 7.68255728 50.23971328 3.95558982 51.84521484 0.22705078 C55.28255547 0.14001255 58.71961321 0.08664806 62.15771484 0.03955078 C63.13417969 0.01441406 64.11064453 -0.01072266 65.11669922 -0.03662109 C66.05449219 -0.04628906 66.99228516 -0.05595703 67.95849609 -0.06591797 C68.8225708 -0.08162842 69.68664551 -0.09733887 70.5769043 -0.11352539 C73.33044384 0.29990564 74.15490965 1.06371119 75.84521484 3.22705078 C76.72021484 5.10205078 76.72021484 5.10205078 76.84521484 7.22705078 C75.65771484 9.91455078 75.65771484 9.91455078 73.84521484 12.22705078 C71.65771484 13.03955078 71.65771484 13.03955078 69.84521484 13.22705078 C70.34021484 14.71205078 70.34021484 14.71205078 70.84521484 16.22705078 C70.9366988 17.73539271 70.97311497 19.24743194 70.97460938 20.75854492 C70.97776154 21.67281754 70.9809137 22.58709015 70.98416138 23.52906799 C70.98112503 25.00572182 70.98112503 25.00572182 70.97802734 26.51220703 C70.97898407 27.52423691 70.9799408 28.53626678 70.98092651 29.57896423 C70.98160708 31.71825218 70.9797614 33.85754219 70.97558594 35.99682617 C70.97023043 39.27999482 70.97553798 42.563027 70.98193359 45.84619141 C70.9812729 47.92236358 70.97999192 49.99853568 70.97802734 52.07470703 C70.98005157 53.06116714 70.98207581 54.04762726 70.98416138 55.0639801 C70.97943314 56.43066078 70.97943314 56.43066078 70.97460938 57.82495117 C70.97381378 58.62864639 70.97301819 59.43234161 70.97219849 60.26039124 C70.84521484 62.22705078 70.84521484 62.22705078 69.84521484 64.22705078 C70.58771484 64.33017578 71.33021484 64.43330078 72.09521484 64.53955078 C75.01535502 65.26958583 76.57709038 66.29494476 78.84521484 68.22705078 C78.21836907 71.15233105 77.36216779 73.63930751 75.84521484 76.22705078 C71.27308246 78.51311698 64.92754731 77.45721934 59.90771484 77.47705078 C58.60640625 77.49767578 57.30509766 77.51830078 55.96435547 77.53955078 C54.71976562 77.54470703 53.47517578 77.54986328 52.19287109 77.55517578 C51.04826416 77.56452148 49.90365723 77.57386719 48.72436523 77.58349609 C45.84521484 77.22705078 45.84521484 77.22705078 43.99926758 75.85888672 C42.425073 73.63296826 42.04369742 71.93964604 41.84521484 69.22705078 C42.82251703 66.52067549 43.25033929 65.52448856 45.84521484 64.22705078 C50.30021484 63.73205078 50.30021484 63.73205078 54.84521484 63.22705078 C54.84521484 52.33705078 54.84521484 41.44705078 54.84521484 30.22705078 C50.55521484 39.79705078 46.26521484 49.36705078 41.84521484 59.22705078 C37.55521484 59.22705078 33.26521484 59.22705078 28.84521484 59.22705078 C24.55521484 49.65705078 20.26521484 40.08705078 15.84521484 30.22705078 C15.51521484 41.44705078 15.18521484 52.66705078 14.84521484 64.22705078 C18.14521484 64.22705078 21.44521484 64.22705078 24.84521484 64.22705078 C27.92178346 67.3036194 28.5418395 68.08092112 28.84521484 72.22705078 C27.86791266 74.93342607 27.44009039 75.92961301 24.84521484 77.22705078 C20.20450973 77.49899124 15.55547968 77.45868924 10.90771484 77.47705078 C9.60640625 77.49767578 8.30509766 77.51830078 6.96435547 77.53955078 C5.71976563 77.54470703 4.47517578 77.54986328 3.19287109 77.55517578 C2.04826416 77.56452148 0.90365723 77.57386719 -0.27563477 77.58349609 C-3.15478516 77.22705078 -3.15478516 77.22705078 -5.00073242 75.85888672 C-6.574927 73.63296826 -6.95630258 71.93964604 -7.15478516 69.22705078 C-6.59228516 66.97705078 -6.59228516 66.97705078 -5.15478516 65.22705078 C-2.18478516 64.73205078 -2.18478516 64.73205078 0.84521484 64.22705078 C0.84521484 47.39705078 0.84521484 30.56705078 0.84521484 13.22705078 C-0.47478516 12.89705078 -1.79478516 12.56705078 -3.15478516 12.22705078 C-5.02978516 9.97705078 -5.02978516 9.97705078 -6.15478516 7.22705078 C-5.22521625 3.5932814 -4.08184697 0.43010624 0 0 Z " fill="#FDFBFB" transform="translate(243.15478515625,33.77294921875)"/>
<path d="M0 0 C0.86931152 0.01047363 1.73862305 0.02094727 2.63427734 0.03173828 C3.57529297 0.03818359 4.51630859 0.04462891 5.48583984 0.05126953 C6.47068359 0.06802734 7.45552734 0.08478516 8.47021484 0.10205078 C9.46279297 0.11107422 10.45537109 0.12009766 11.47802734 0.12939453 C13.93399618 0.15300962 16.38948653 0.18594279 18.84521484 0.22705078 C21.12867026 5.17276621 23.40720317 10.12070734 25.68115234 15.07080078 C26.45583503 16.75534568 27.23187243 18.43926825 28.00927734 20.12255859 C29.12480525 22.53858714 30.23548313 24.95679301 31.34521484 27.37548828 C31.69519531 28.13074799 32.04517578 28.88600769 32.40576172 29.66415405 C34.84521484 34.99930737 34.84521484 34.99930737 34.84521484 37.22705078 C35.50521484 37.22705078 36.16521484 37.22705078 36.84521484 37.22705078 C36.94576172 36.55125977 37.04630859 35.87546875 37.14990234 35.17919922 C37.99956439 31.57171555 39.43146223 28.34532978 40.97021484 24.99267578 C41.27717285 24.3140448 41.58413086 23.63541382 41.90039062 22.93621826 C42.54684979 21.50974385 43.19582402 20.08440685 43.84716797 18.66015625 C44.84714928 16.47281944 45.83898265 14.28192784 46.82958984 12.09033203 C47.45932637 10.70339896 48.08951868 9.31667273 48.72021484 7.93017578 C49.01814941 7.27293518 49.31608398 6.61569458 49.62304688 5.9385376 C51.72879288 1.34347275 51.72879288 1.34347275 52.84521484 0.22705078 C56.12864665 -0.05113471 59.42639217 -0.00472613 62.72021484 -0.02294922 C64.10660156 -0.05388672 64.10660156 -0.05388672 65.52099609 -0.08544922 C66.40916016 -0.09060547 67.29732422 -0.09576172 68.21240234 -0.10107422 C69.02821777 -0.11041992 69.8440332 -0.11976562 70.68457031 -0.12939453 C73.37291957 0.31410715 74.20971592 1.08372284 75.84521484 3.22705078 C76.78271484 6.16455078 76.78271484 6.16455078 76.84521484 9.22705078 C75.09521484 11.60205078 75.09521484 11.60205078 72.84521484 13.22705078 C71.85521484 13.22705078 70.86521484 13.22705078 69.84521484 13.22705078 C69.84521484 30.05705078 69.84521484 46.88705078 69.84521484 64.22705078 C71.82521484 64.55705078 73.80521484 64.88705078 75.84521484 65.22705078 C77.84521484 68.22705078 77.84521484 68.22705078 77.65771484 71.78955078 C76.84521484 75.22705078 76.84521484 75.22705078 73.84521484 77.22705078 C69.19231099 77.67337725 64.51714695 77.55116095 59.84521484 77.53955078 C58.54841797 77.55566406 57.25162109 77.57177734 55.91552734 77.58837891 C54.67544922 77.58902344 53.43537109 77.58966797 52.15771484 77.59033203 C50.45035156 77.59480347 50.45035156 77.59480347 48.70849609 77.59936523 C45.84521484 77.22705078 45.84521484 77.22705078 43.97412109 75.9230957 C42.07165034 73.06486379 42.49024243 70.54012668 42.84521484 67.22705078 C43.83521484 66.23705078 44.82521484 65.24705078 45.84521484 64.22705078 C49.14521484 64.22705078 52.44521484 64.22705078 55.84521484 64.22705078 C55.51521484 53.33705078 55.18521484 42.44705078 54.84521484 31.22705078 C50.93850558 40.06663045 50.93850558 40.06663045 47.03686523 48.90844727 C46.55209717 50.00229736 46.0673291 51.09614746 45.56787109 52.22314453 C45.07037354 53.34906006 44.57287598 54.47497559 44.06030273 55.63500977 C42.84521484 58.22705078 42.84521484 58.22705078 41.84521484 59.22705078 C39.82557286 59.29949131 37.80354361 59.31082266 35.78271484 59.28955078 C34.125625 59.27601562 34.125625 59.27601562 32.43505859 59.26220703 C31.58041016 59.25060547 30.72576172 59.23900391 29.84521484 59.22705078 C25.51188151 50.56038411 21.17854818 41.89371745 16.84521484 33.22705078 C16.85307007 34.52908447 16.85307007 34.52908447 16.86108398 35.85742188 C16.87811346 39.07405351 16.89065893 42.29066219 16.90014648 45.50732422 C16.90517915 46.90023555 16.91200582 48.29314159 16.9206543 49.68603516 C16.93276636 51.68666324 16.93791897 53.68732966 16.94287109 55.68798828 C16.95072632 57.49468994 16.95072632 57.49468994 16.95874023 59.33789062 C16.84521484 62.22705078 16.84521484 62.22705078 15.84521484 64.22705078 C16.44849609 64.18064453 17.05177734 64.13423828 17.67333984 64.08642578 C24.11986104 63.79529257 24.11986104 63.79529257 27.47021484 65.78955078 C29.44466855 69.28971871 28.90011231 71.42941991 27.84521484 75.22705078 C22.77635201 78.60629267 16.7964007 77.55434001 10.84521484 77.53955078 C9.54841797 77.55566406 8.25162109 77.57177734 6.91552734 77.58837891 C5.67544922 77.58902344 4.43537109 77.58966797 3.15771484 77.59033203 C1.45035156 77.59480347 1.45035156 77.59480347 -0.29150391 77.59936523 C-3.15478516 77.22705078 -3.15478516 77.22705078 -5.02587891 75.9230957 C-6.92834966 73.06486379 -6.50975757 70.54012668 -6.15478516 67.22705078 C-4.10734285 64.15588732 -2.92174225 64.16879006 0.84521484 63.22705078 C1.17521484 46.72705078 1.50521484 30.22705078 1.84521484 13.22705078 C0.19521484 12.89705078 -1.45478516 12.56705078 -3.15478516 12.22705078 C-4.96728516 10.66455078 -4.96728516 10.66455078 -6.15478516 9.22705078 C-3.86826103 0.40760058 -3.86826103 0.40760058 0 0 Z " fill="#FDFCFB" transform="translate(399.15478515625,33.77294921875)"/>
<path d="M0 0 C1.92346649 0.8104563 1.92346649 0.8104563 3.85546875 -0.44140625 C9.22911529 -0.89873787 9.22911529 -0.89873787 11.52197266 0.77539062 C13.24965933 3.08572081 13.24242382 4.4725176 13.25390625 7.33984375 C13.25970703 8.72623047 13.25970703 8.72623047 13.265625 10.140625 C13.25402344 11.10355469 13.24242187 12.06648438 13.23046875 13.05859375 C13.24207031 14.02152344 13.25367188 14.98445313 13.265625 15.9765625 C13.26175781 16.90082031 13.25789062 17.82507813 13.25390625 18.77734375 C13.25052246 19.62232422 13.24713867 20.46730469 13.24365234 21.33789062 C12.77100797 24.04177317 11.99863928 24.89562233 9.85546875 26.55859375 C7.48046875 27.49609375 7.48046875 27.49609375 4.85546875 27.55859375 C2.16796875 26.12109375 2.16796875 26.12109375 -0.14453125 23.55859375 C-0.75094877 21.49514621 -1.14351744 19.43884799 -1.55078125 17.328125 C-2.02774834 15.25798987 -2.02774834 15.25798987 -4.64453125 14.12109375 C-5.46953125 13.93546875 -6.29453125 13.74984375 -7.14453125 13.55859375 C-7.80453125 13.22859375 -8.46453125 12.89859375 -9.14453125 12.55859375 C-17.89030174 11.64625882 -17.89030174 11.64625882 -25.89453125 14.49609375 C-28.83330392 16.85948817 -28.83330392 16.85948817 -29.45703125 20.37109375 C-29.42252683 23.56142949 -29.42252683 23.56142949 -27.58984375 25.6328125 C-24.50076708 28.06558375 -21.47128538 28.77195313 -17.70703125 29.55859375 C-16.27283714 29.88933446 -14.83924824 30.22270956 -13.40625 30.55859375 C-12.69130371 30.72359375 -11.97635742 30.88859375 -11.23974609 31.05859375 C-1.11471244 33.47482178 7.73925944 35.60271583 13.85546875 44.55859375 C16.65762877 50.47538487 17.1373642 57.38283852 15.203125 63.68359375 C11.37852748 71.03732633 4.75479326 75.3523242 -2.92578125 77.86328125 C-12.93151998 80.0247151 -22.3453661 79.22417242 -31.7890625 75.23828125 C-32.56636719 75.01398438 -33.34367187 74.7896875 -34.14453125 74.55859375 C-35.62953125 75.54859375 -35.62953125 75.54859375 -37.14453125 76.55859375 C-42.38997791 77.10499444 -42.38997791 77.10499444 -44.95703125 75.24609375 C-47.60077295 71.48919764 -47.32781686 67.51670355 -47.33203125 63.12109375 C-47.34621094 61.80238281 -47.36039062 60.48367187 -47.375 59.125 C-47.16560572 55.88471231 -46.94720033 54.1922805 -45.14453125 51.55859375 C-42.76380101 49.83461668 -41.5291527 49.53983173 -38.58203125 49.68359375 C-34.76916251 51.05231586 -33.64530351 53.50433635 -31.95703125 57.05859375 C-29.27242063 60.76150495 -26.53102807 62.31386703 -22.14453125 63.55859375 C-13.80306634 64.51995001 -7.24845187 64.15524827 -0.14453125 59.55859375 C1.17515053 58.45330933 1.17515053 58.45330933 1.10546875 55.68359375 C1.15523004 52.62395179 1.15523004 52.62395179 -0.43359375 50.953125 C-5.98631942 46.42727326 -15.13443902 45.55671458 -22.02783203 44.09204102 C-29.99918684 42.32824847 -36.46256688 39.20904526 -41.39453125 32.49609375 C-44.69038265 26.96377175 -44.74040852 21.85416666 -44.14453125 15.55859375 C-42.3303679 8.89125455 -37.7536712 4.35833371 -32.14453125 0.55859375 C-22.62669497 -4.70420984 -9.86978256 -3.7197673 0 0 Z " fill="#FDFBFA" transform="translate(528.14453125,34.44140625)"/>
<path d="M0 0 C0.98790024 -0.01268417 1.97580048 -0.02536835 2.99363708 -0.03843689 C4.59212242 -0.03403343 4.59212242 -0.03403343 6.22290039 -0.02954102 C7.3189711 -0.03478287 8.41504181 -0.04002472 9.54432678 -0.04542542 C11.86352694 -0.05185208 14.18275967 -0.05050034 16.50195312 -0.04199219 C20.05340581 -0.03348833 23.60324758 -0.0622268 27.15454102 -0.09399414 C29.40649366 -0.09560633 31.65844915 -0.09502828 33.91040039 -0.09204102 C34.97403305 -0.10327499 36.03766571 -0.11450897 37.13352966 -0.12608337 C44.46329538 -0.05670241 44.46329538 -0.05670241 47.80712891 2.24365234 C49.60751878 5.17711763 49.63635212 7.02478306 49.13305664 10.40405273 C47.94555664 12.21655273 47.94555664 12.21655273 46.13305664 13.40405273 C41.13305664 14.40405273 41.13305664 14.40405273 27.13305664 14.40405273 C27.13305664 30.90405273 27.13305664 47.40405273 27.13305664 64.40405273 C33.07305664 64.40405273 39.01305664 64.40405273 45.13305664 64.40405273 C46.45305664 65.72405273 47.77305664 67.04405273 49.13305664 68.40405273 C49.07055664 72.02905273 49.07055664 72.02905273 48.13305664 75.40405273 C44.8950099 77.56275056 43.98944872 77.65896618 40.25024414 77.67871094 C39.25911621 77.68824295 38.26798828 77.69777496 37.24682617 77.70759583 C36.17803223 77.70668442 35.10923828 77.70577301 34.00805664 77.70483398 C32.36039307 77.71126167 32.36039307 77.71126167 30.67944336 77.71781921 C28.35604543 77.72356458 26.03262951 77.72406127 23.70922852 77.71972656 C20.14706898 77.71656517 16.58573852 77.74002902 13.02368164 77.76538086 C10.76847436 77.76765361 8.51326484 77.76835746 6.25805664 77.76733398 C5.1892627 77.77654373 4.12046875 77.78575348 3.01928711 77.79524231 C1.53259521 77.78589912 1.53259521 77.78589912 0.01586914 77.77636719 C-1.29293213 77.77731133 -1.29293213 77.77731133 -2.62817383 77.77827454 C-5.37044655 77.3198896 -6.25597597 76.64606979 -7.86694336 74.40405273 C-8.24194336 70.90405273 -8.24194336 70.90405273 -7.86694336 67.40405273 C-6.87694336 66.41405273 -5.88694336 65.42405273 -4.86694336 64.40405273 C1.07305664 64.40405273 7.01305664 64.40405273 13.13305664 64.40405273 C13.13305664 47.90405273 13.13305664 31.40405273 13.13305664 14.40405273 C8.84305664 14.40405273 4.55305664 14.40405273 0.13305664 14.40405273 C-5.86694336 12.40405273 -5.86694336 12.40405273 -7.86694336 10.40405273 C-8.43161248 4.19269237 -8.43161248 4.19269237 -6.65159607 1.70664978 C-4.31510437 0.00127194 -2.87972563 0.01789395 0 0 Z " fill="#FEFBFB" transform="translate(335.866943359375,33.595947265625)"/>
<path d="M0 0 C2.31 0 4.62 0 7 0 C8.32 2.64 9.64 5.28 11 8 C11.27972656 7.4225 11.55945313 6.845 11.84765625 6.25 C13.09120051 3.94684407 14.26190188 1.96181372 16 0 C19.8125 -0.5 19.8125 -0.5 23 0 C23 0.99 23 1.98 23 3 C22.34 3 21.68 3 21 3 C21.495 9.93 21.495 9.93 22 17 C23.98 12.38 25.96 7.76 28 3 C26.68 3 25.36 3 24 3 C24 2.01 24 1.02 24 0 C27.63 0 31.26 0 35 0 C36.17112946 2.62309099 37.33705964 5.24828142 38.5 7.875 C38.83386719 8.62136719 39.16773438 9.36773437 39.51171875 10.13671875 C39.82753906 10.85214844 40.14335938 11.56757813 40.46875 12.3046875 C40.76201172 12.96452637 41.05527344 13.62436523 41.35742188 14.30419922 C42 16 42 16 42 18 C42.99 18 43.98 18 45 18 C45 13.05 45 8.1 45 3 C44.01 3 43.02 3 42 3 C42 2.01 42 1.02 42 0 C47.02072539 -0.96891192 47.02072539 -0.96891192 50 0 C52.88052941 3.37587278 54.9589963 7.07106788 57 11 C57.33 8.36 57.66 5.72 58 3 C56.68 3 55.36 3 54 3 C54 2.01 54 1.02 54 0 C57.3 0 60.6 0 64 0 C64 0.99 64 1.98 64 3 C63.34 3 62.68 3 62 3 C62 7.95 62 12.9 62 18 C62.99 18 63.98 18 65 18 C65.19335938 17.40832031 65.38671875 16.81664062 65.5859375 16.20703125 C66.94414719 12.0853355 68.32050585 8.0049476 70 4 C68.68 3.67 67.36 3.34 66 3 C66 2.01 66 1.02 66 0 C69.96 0 73.92 0 78 0 C78.48210937 1.21558594 78.96421875 2.43117188 79.4609375 3.68359375 C80.09860027 5.26837329 80.73664066 6.85300092 81.375 8.4375 C81.85066406 9.64116211 81.85066406 9.64116211 82.3359375 10.86914062 C82.6453125 11.63291016 82.9546875 12.39667969 83.2734375 13.18359375 C83.69761963 14.24404907 83.69761963 14.24404907 84.13037109 15.32592773 C84.89057933 17.19010877 84.89057933 17.19010877 87 18 C87 18.99 87 19.98 87 21 C83.7 21 80.4 21 77 21 C77 20.01 77 19.02 77 18 C77.99 17.505 77.99 17.505 79 17 C79 16.34 79 15.68 79 15 C77.0509375 15.185625 77.0509375 15.185625 75.0625 15.375 C74.33160156 15.44460937 73.60070312 15.51421875 72.84765625 15.5859375 C72.23792969 15.72257813 71.62820313 15.85921875 71 16 C70.67 16.66 70.34 17.32 70 18 C70.99 18 71.98 18 73 18 C73 18.99 73 19.98 73 21 C61.84118216 22.32619804 61.84118216 22.32619804 57 21 C53.56696624 17.79208321 51.74374708 14.33124275 50 10 C49.67 12.64 49.34 15.28 49 18 C50.32 18 51.64 18 53 18 C53 18.99 53 19.98 53 21 C46.73 21 40.46 21 34 21 C34 20.01 34 19.02 34 18 C34.99 18 35.98 18 37 18 C36.505 17.01 36.505 17.01 36 16 C34.10466658 15.53476937 34.10466658 15.53476937 31.9375 15.375 C30.638125 15.25125 29.33875 15.1275 28 15 C28 15.66 28 16.32 28 17 C28.66 17.33 29.32 17.66 30 18 C30 18.99 30 19.98 30 21 C24.06 21 18.12 21 12 21 C12.33 20.01 12.66 19.02 13 18 C14.32 18 15.64 18 17 18 C16.67 16.02 16.34 14.04 16 12 C15.5875 12.825 15.175 13.65 14.75 14.5 C13.88375 15.7375 13.88375 15.7375 13 17 C11.68 17 10.36 17 9 17 C8.34 15.35 7.68 13.7 7 12 C6.67 13.98 6.34 15.96 6 18 C7.32 18 8.64 18 10 18 C10 18.99 10 19.98 10 21 C6.37 21 2.74 21 -1 21 C-1 20.01 -1 19.02 -1 18 C-0.01 18 0.98 18 2 18 C2 13.05 2 8.1 2 3 C1.34 3 0.68 3 0 3 C0 2.01 0 1.02 0 0 Z M32 6 C31.34 7.98 30.68 9.96 30 12 C31.65 12 33.3 12 35 12 C34.34 10.02 33.68 8.04 33 6 C32.67 6 32.34 6 32 6 Z M74 6 C73.34 7.98 72.68 9.96 72 12 C73.65 12 75.3 12 77 12 C76.34 10.02 75.68 8.04 75 6 C74.67 6 74.34 6 74 6 Z " fill="#FEF6F5" transform="translate(650,125)"/>
<path d="M0 0 C2.60478883 -0.0809313 5.20706653 -0.14045434 7.8125 -0.1875 C8.55048828 -0.21263672 9.28847656 -0.23777344 10.04882812 -0.26367188 C15.46958697 -0.33725684 15.46958697 -0.33725684 18.02734375 1.2890625 C19.68865989 4.21137764 18.68811736 6.84612879 18 10 C17.67 10.66 17.34 11.32 17 12 C17.75259808 14.73236635 17.75259808 14.73236635 20 17 C23.05776136 17.75767538 25.82427093 17.86192482 29 18 C29 13.05 29 8.1 29 3 C27.02 3 25.04 3 23 3 C23 2.01 23 1.02 23 0 C28.61 0 34.22 0 40 0 C40 0.99 40 1.98 40 3 C38.02 3 36.04 3 34 3 C34.17402344 3.54140625 34.34804688 4.0828125 34.52734375 4.640625 C35.09766505 7.48751809 34.87137301 9.86718522 34.5625 12.75 C34.46066406 13.73484375 34.35882813 14.7196875 34.25390625 15.734375 C34.17011719 16.48203125 34.08632813 17.2296875 34 18 C36.97 18 39.94 18 43 18 C43.19335938 17.33613281 43.38671875 16.67226562 43.5859375 15.98828125 C46.17223199 7.21792619 46.17223199 7.21792619 48 3 C46.68 3 45.36 3 44 3 C44 2.01 44 1.02 44 0 C47.63 0 51.26 0 55 0 C62 13.75862069 62 13.75862069 62 18 C63.98 18 65.96 18 68 18 C68 13.05 68 8.1 68 3 C66.68 3 65.36 3 64 3 C64 2.01 64 1.02 64 0 C68.29 0 72.58 0 77 0 C77 0.99 77 1.98 77 3 C75.68 3 74.36 3 73 3 C73 7.95 73 12.9 73 18 C75.31 18 77.62 18 80 18 C80 16.35 80 14.7 80 13 C81.32 13 82.64 13 84 13 C84 15.64 84 18.28 84 21 C74.1 21 64.2 21 54 21 C54 20.01 54 19.02 54 18 C54.99 18 55.98 18 57 18 C57 17.01 57 16.02 57 15 C54.03 15 51.06 15 48 15 C48 15.99 48 16.98 48 18 C48.99 18 49.98 18 51 18 C51 18.99 51 19.98 51 21 C46.088839 21.14847696 41.17898714 21.2572708 36.26611328 21.32958984 C34.59563439 21.35973821 32.9253135 21.40066552 31.25537109 21.45263672 C28.85214295 21.52554846 26.45100836 21.55947188 24.046875 21.5859375 C23.30193787 21.61690521 22.55700073 21.64787292 21.78948975 21.67977905 C19.66699219 21.68115234 19.66699219 21.68115234 16 21 C13.66894531 18.08056641 13.66894531 18.08056641 12 15 C9.39975951 13.13689678 9.39975951 13.13689678 7 12 C7 13.98 7 15.96 7 18 C8.65 17.67 10.3 17.34 12 17 C11.67 18.32 11.34 19.64 11 21 C7.37 21 3.74 21 0 21 C0 20.01 0 19.02 0 18 C0.99 18 1.98 18 3 18 C3 13.05 3 8.1 3 3 C2.01 3 1.02 3 0 3 C0 2.01 0 1.02 0 0 Z M7 3 C7 4.98 7 6.96 7 9 C9.93443402 8.73343428 9.93443402 8.73343428 13 8 C13.66 7.01 14.32 6.02 15 5 C11.77208445 2.8480563 10.71599191 2.79913557 7 3 Z M52 6 C51.34 7.98 50.68 9.96 50 12 C51.65 12 53.3 12 55 12 C54.34 10.02 53.68 8.04 53 6 C52.67 6 52.34 6 52 6 Z " fill="#FEF5F4" transform="translate(333,125)"/>
<path d="M0 0 C6.27 0 12.54 0 19 0 C19 2.31 19 4.62 19 7 C16.525 6.505 16.525 6.505 14 6 C14 5.01 14 4.02 14 3 C11.69 3 9.38 3 7 3 C7 4.98 7 6.96 7 9 C7.99 8.34 8.98 7.68 10 7 C12.1875 7.375 12.1875 7.375 14 8 C14 9.65 14 11.3 14 13 C10.25 14.125 10.25 14.125 8 13 C7.67 14.65 7.34 16.3 7 18 C9.64 18 12.28 18 15 18 C15 16.68 15 15.36 15 14 C17.475 14.495 17.475 14.495 20 15 C20 15.99 20 16.98 20 18 C20.66 18 21.32 18 22 18 C22 13.05 22 8.1 22 3 C21.34 3 20.68 3 20 3 C20 2.01 20 1.02 20 0 C23.1875 -0.5 23.1875 -0.5 27 0 C29.15024236 2.42700622 30.59103494 5.09116891 32 8 C33.32 5.36 34.64 2.72 36 0 C44.25 0 52.5 0 61 0 C61 2.31 61 4.62 61 7 C59.68 7 58.36 7 57 7 C57 5.68 57 4.36 57 3 C54.36 3 51.72 3 49 3 C49 4.98 49 6.96 49 9 C49.99 9 50.98 9 52 9 C52 8.34 52 7.68 52 7 C53.32 7 54.64 7 56 7 C56 9.31 56 11.62 56 14 C54.68 14 53.36 14 52 14 C52 13.34 52 12.68 52 12 C51.34 12.33 50.68 12.66 50 13 C49.34444881 15.52733235 49.34444881 15.52733235 49 18 C51.64 18 54.28 18 57 18 C57.33 16.68 57.66 15.36 58 14 C59.32 14 60.64 14 62 14 C62 16.31 62 18.62 62 21 C52.43 21 42.86 21 33 21 C33 20.01 33 19.02 33 18 C34.32 18 35.64 18 37 18 C36.67 16.35 36.34 14.7 36 13 C35.34 14.32 34.68 15.64 34 17 C31.625 16.75 31.625 16.75 29 16 C27.6875 13.9375 27.6875 13.9375 27 12 C26.67 13.98 26.34 15.96 26 18 C27.32 18 28.64 18 30 18 C30 18.99 30 19.98 30 21 C20.1 21 10.2 21 0 21 C0 20.01 0 19.02 0 18 C0.99 18 1.98 18 3 18 C3 13.05 3 8.1 3 3 C2.01 3 1.02 3 0 3 C0 2.01 0 1.02 0 0 Z M41 3 C41 7.95 41 12.9 41 18 C42.32 18 43.64 18 45 18 C45 13.05 45 8.1 45 3 C43.68 3 42.36 3 41 3 Z " fill="#FEF5F4" transform="translate(757,125)"/>
<path d="M0 0 C13.2 0 26.4 0 40 0 C40 2.31 40 4.62 40 7 C37.525 6.505 37.525 6.505 35 6 C35 5.01 35 4.02 35 3 C33.02 3.33 31.04 3.66 29 4 C28.67 5.65 28.34 7.3 28 9 C28.99 8.34 29.98 7.68 31 7 C33.1875 7.375 33.1875 7.375 35 8 C35 9.65 35 11.3 35 13 C31.25 14.125 31.25 14.125 29 13 C28.67 14.65 28.34 16.3 28 18 C30.64 18 33.28 18 36 18 C36 16.68 36 15.36 36 14 C38.475 14.495 38.475 14.495 41 15 C41 15.99 41 16.98 41 18 C41.66 18 42.32 18 43 18 C43 13.05 43 8.1 43 3 C42.34 3 41.68 3 41 3 C41 2.01 41 1.02 41 0 C44.1875 -0.5 44.1875 -0.5 48 0 C50.15024236 2.42700622 51.59103494 5.09116891 53 8 C54.32 5.36 55.64 2.72 57 0 C59.31 0 61.62 0 64 0 C64 0.99 64 1.98 64 3 C63.34 3 62.68 3 62 3 C62 7.95 62 12.9 62 18 C62.99 18 63.98 18 65 18 C65 18.99 65 19.98 65 21 C61.37 21 57.74 21 54 21 C54 20.01 54 19.02 54 18 C55.32 18 56.64 18 58 18 C57.67 16.35 57.34 14.7 57 13 C56.34 14.32 55.68 15.64 55 17 C52.625 16.75 52.625 16.75 50 16 C48.6875 13.9375 48.6875 13.9375 48 12 C47.67 13.98 47.34 15.96 47 18 C48.32 18 49.64 18 51 18 C51 18.99 51 19.98 51 21 C41.1 21 31.2 21 21 21 C21 20.01 21 19.02 21 18 C21.99 18 22.98 18 24 18 C24 13.05 24 8.1 24 3 C23.01 3 22.02 3 21 3 C20.67 4.65 20.34 6.3 20 8 C18.35 8.33 16.7 8.66 15 9 C13.875 5.25 13.875 5.25 15 3 C14.01 3.495 14.01 3.495 13 4 C12.52998967 7.27555608 12.52998967 7.27555608 12.375 11.0625 C12.30023437 12.35285156 12.22546875 13.64320313 12.1484375 14.97265625 C12.09945312 15.97167969 12.05046875 16.97070312 12 18 C13.65 18 15.3 18 17 18 C17 18.99 17 19.98 17 21 C12.05 21 7.1 21 2 21 C2.33 20.01 2.66 19.02 3 18 C4.65 18 6.3 18 8 18 C8 13.05 8 8.1 8 3 C7.01 3 6.02 3 5 3 C5.061875 3.78375 5.12375 4.5675 5.1875 5.375 C5.125625 6.24125 5.06375 7.1075 5 8 C2.68143083 9.54571278 0.49361571 10.79618552 -2 12 C-2 10.35 -2 8.7 -2 7 C-1.67 7 -1.34 7 -1 7 C-0.67 4.69 -0.34 2.38 0 0 Z " fill="#FEF5F5" transform="translate(948,125)"/>
<path d="M0 0 C5.02072539 -0.96891192 5.02072539 -0.96891192 8 0 C10.88052941 3.37587278 12.9589963 7.07106788 15 11 C15.33 8.36 15.66 5.72 16 3 C14.68 3 13.36 3 12 3 C12 2.01 12 1.02 12 0 C18.27 0 24.54 0 31 0 C31 0.99 31 1.98 31 3 C30.01 3 29.02 3 28 3 C29.32 5.97 30.64 8.94 32 12 C34.6465335 9.3534665 35.59941997 6.43778736 37 3 C36.01 3 35.02 3 34 3 C34 2.01 34 1.02 34 0 C43.24 0 52.48 0 62 0 C62 2.31 62 4.62 62 7 C60.68 7 59.36 7 58 7 C58 5.68 58 4.36 58 3 C55.69 3 53.38 3 51 3 C51 4.98 51 6.96 51 9 C51.66 9 52.32 9 53 9 C53 8.34 53 7.68 53 7 C54.32 7 55.64 7 57 7 C57 9.31 57 11.62 57 14 C55.68 14 54.36 14 53 14 C53 13.34 53 12.68 53 12 C52.34 12 51.68 12 51 12 C51 13.98 51 15.96 51 18 C53.64 18 56.28 18 59 18 C59 16.68 59 15.36 59 14 C60.32 14 61.64 14 63 14 C63 16.31 63 18.62 63 21 C56.4 21 49.8 21 43 21 C43 20.01 43 19.02 43 18 C43.99 18 44.98 18 46 18 C46 13.05 46 8.1 46 3 C44.68 3 43.36 3 42 3 C41.82984375 3.54527344 41.6596875 4.09054688 41.484375 4.65234375 C39.67459186 10.28384978 37.49654622 15.63939569 35 21 C33.35 21 31.7 21 30 21 C28.82887054 18.37690901 27.66294036 15.75171858 26.5 13.125 C26.16613281 12.37863281 25.83226562 11.63226563 25.48828125 10.86328125 C25.17246094 10.14785156 24.85664063 9.43242187 24.53125 8.6953125 C24.09135742 7.7055542 24.09135742 7.7055542 23.64257812 6.69580078 C23 5 23 5 23 3 C22.01 3 21.02 3 20 3 C20 8.94 20 14.88 20 21 C18.35 21 16.7 21 15 21 C12.98046875 18.59375 12.98046875 18.59375 11.1875 15.5 C10.58292969 14.4790625 9.97835938 13.458125 9.35546875 12.40625 C8.90816406 11.6121875 8.46085937 10.818125 8 10 C7.67 12.64 7.34 15.28 7 18 C8.32 18 9.64 18 11 18 C11 18.99 11 19.98 11 21 C7.37 21 3.74 21 0 21 C0 20.01 0 19.02 0 18 C0.99 18 1.98 18 3 18 C3 13.05 3 8.1 3 3 C2.01 3 1.02 3 0 3 C0 2.01 0 1.02 0 0 Z " fill="#FEF6F5" transform="translate(459,125)"/>
<path d="M0 0 C2.31 0 4.62 0 7 0 C8.32 2.64 9.64 5.28 11 8 C11.27972656 7.4225 11.55945313 6.845 11.84765625 6.25 C13.09120051 3.94684407 14.26190188 1.96181372 16 0 C19.8125 -0.5 19.8125 -0.5 23 0 C23 0.99 23 1.98 23 3 C22.34 3 21.68 3 21 3 C21 7.95 21 12.9 21 18 C21.66 18 22.32 18 23 18 C23.19335938 17.33613281 23.38671875 16.67226562 23.5859375 15.98828125 C26.17223199 7.21792619 26.17223199 7.21792619 28 3 C26.68 3 25.36 3 24 3 C24 2.01 24 1.02 24 0 C27.63 0 31.26 0 35 0 C42 13.75862069 42 13.75862069 42 18 C42.99 18 43.98 18 45 18 C45 18.99 45 19.98 45 21 C41.37 21 37.74 21 34 21 C34 20.01 34 19.02 34 18 C34.99 18 35.98 18 37 18 C37 17.01 37 16.02 37 15 C34.03 15 31.06 15 28 15 C28 15.99 28 16.98 28 18 C28.99 18 29.98 18 31 18 C31 18.99 31 19.98 31 21 C25.06 21 19.12 21 13 21 C13 20.01 13 19.02 13 18 C14.32 18 15.64 18 17 18 C16.67 16.02 16.34 14.04 16 12 C15.5875 12.825 15.175 13.65 14.75 14.5 C13.88375 15.7375 13.88375 15.7375 13 17 C11.68 17 10.36 17 9 17 C8.34 15.35 7.68 13.7 7 12 C6.67 13.98 6.34 15.96 6 18 C7.65 18.33 9.3 18.66 11 19 C10.67 19.66 10.34 20.32 10 21 C6.37 21 2.74 21 -1 21 C-1 20.01 -1 19.02 -1 18 C-0.01 18 0.98 18 2 18 C2 13.05 2 8.1 2 3 C1.34 3 0.68 3 0 3 C0 2.01 0 1.02 0 0 Z M32 6 C31.34 7.98 30.68 9.96 30 12 C31.65 12 33.3 12 35 12 C34.34 10.02 33.68 8.04 33 6 C32.67 6 32.34 6 32 6 Z " fill="#FEF6F5" transform="translate(247,125)"/>
<path d="M0 0 C5.02072539 -0.88082902 5.02072539 -0.88082902 8 0 C10.84847924 3.03482835 12.93993417 6.3948848 15 10 C15.33 7.69 15.66 5.38 16 3 C14.68 3 13.36 3 12 3 C12 2.01 12 1.02 12 0 C22.23 0 32.46 0 43 0 C43 2.64 43 5.28 43 8 C40.525 7.505 40.525 7.505 38 7 C38 5.68 38 4.36 38 3 C37.34 3.33 36.68 3.66 36 4 C35.52998967 7.27555608 35.52998967 7.27555608 35.375 11.0625 C35.30023437 12.35285156 35.22546875 13.64320313 35.1484375 14.97265625 C35.09945312 15.97167969 35.05046875 16.97070312 35 18 C36.65 18 38.3 18 40 18 C40 18.99 40 19.98 40 21 C37.54101345 21.08076963 35.08466258 21.14037143 32.625 21.1875 C31.92632813 21.21263672 31.22765625 21.23777344 30.5078125 21.26367188 C28.4765625 21.29296875 28.4765625 21.29296875 25 21 C24.34 20.01 23.68 19.02 23 18 C25.64 18 28.28 18 31 18 C31 13.05 31 8.1 31 3 C30.01 3 29.02 3 28 3 C28 4.65 28 6.3 28 8 C26.35 8.33 24.7 8.66 23 9 C23 7.02 23 5.04 23 3 C22.01 3 21.02 3 20 3 C20 8.94 20 14.88 20 21 C15 20 15 20 13.19921875 17.93359375 C12.70035156 17.10988281 12.20148437 16.28617188 11.6875 15.4375 C11.17574219 14.61121094 10.66398438 13.78492188 10.13671875 12.93359375 C9.76160156 12.29550781 9.38648438 11.65742188 9 11 C8.67 13.31 8.34 15.62 8 18 C9.32 18 10.64 18 12 18 C12 18.99 12 19.98 12 21 C8.37 21 4.74 21 1 21 C1 20.01 1 19.02 1 18 C1.66 18 2.32 18 3 18 C2.91621094 17.33613281 2.83242188 16.67226562 2.74609375 15.98828125 C1.73462214 7.21792619 1.73462214 7.21792619 3 3 C2.01 3 1.02 3 0 3 C0 2.01 0 1.02 0 0 Z " fill="#FEF4F4" transform="translate(819,125)"/>
<path d="M0 0 C13.2 0 26.4 0 40 0 C40 1.98 40 3.96 40 6 C38.35 6.33 36.7 6.66 35 7 C35 5.68 35 4.36 35 3 C32.69 3 30.38 3 28 3 C28 4.98 28 6.96 28 9 C28.66 9 29.32 9 30 9 C30 8.34 30 7.68 30 7 C31.32 7 32.64 7 34 7 C34 9.31 34 11.62 34 14 C32.68 14 31.36 14 30 14 C30 13.34 30 12.68 30 12 C29.34 12 28.68 12 28 12 C28 13.98 28 15.96 28 18 C30.64 18 33.28 18 36 18 C36 16.68 36 15.36 36 14 C37.32 14 38.64 14 40 14 C40 16.31 40 18.62 40 21 C33.4 21 26.8 21 20 21 C20 20.01 20 19.02 20 18 C20.99 18 21.98 18 23 18 C23 13.05 23 8.1 23 3 C22.01 3 21.02 3 20 3 C20.33 4.65 20.66 6.3 21 8 C19.02 8 17.04 8 15 8 C15 6.35 15 4.7 15 3 C14.01 3 13.02 3 12 3 C12 7.95 12 12.9 12 18 C13.65 18 15.3 18 17 18 C17 18.99 17 19.98 17 21 C12.38 21 7.76 21 3 21 C3 20.01 3 19.02 3 18 C4.65 18 6.3 18 8 18 C8 13.05 8 8.1 8 3 C7.01 3 6.02 3 5 3 C5.33 4.32 5.66 5.64 6 7 C4.02 7.33 2.04 7.66 0 8 C0 5.36 0 2.72 0 0 Z " fill="#FEF4F4" transform="translate(291,125)"/>
<path d="M0 0 C5.02072539 -0.88082902 5.02072539 -0.88082902 8 0 C10.84847924 3.03482835 12.93993417 6.3948848 15 10 C15.33 7.69 15.66 5.38 16 3 C15.01 3 14.02 3 13 3 C13 2.01 13 1.02 13 0 C16.3 0 19.6 0 23 0 C23 0.99 23 1.98 23 3 C22.34 3 21.68 3 21 3 C21 8.94 21 14.88 21 21 C19.35 21 17.7 21 16 21 C13.98046875 18.8125 13.98046875 18.8125 12.1875 16 C11.58292969 15.071875 10.97835937 14.14375 10.35546875 13.1875 C9.90816406 12.465625 9.46085938 11.74375 9 11 C8.67 13.31 8.34 15.62 8 18 C9.32 18 10.64 18 12 18 C12 18.99 12 19.98 12 21 C8.37 21 4.74 21 1 21 C1 20.01 1 19.02 1 18 C1.99 18 2.98 18 4 18 C4 13.05 4 8.1 4 3 C2.68 3 1.36 3 0 3 C0 2.01 0 1.02 0 0 Z " fill="#FEF6F6" transform="translate(522,125)"/>
<path d="M0 0 C2.60478883 -0.0809313 5.20706653 -0.14045434 7.8125 -0.1875 C8.55048828 -0.21263672 9.28847656 -0.23777344 10.04882812 -0.26367188 C15.49216144 -0.33756328 15.49216144 -0.33756328 17.9921875 1.32421875 C19.55987432 3.9309538 19.30924427 6.03125501 19 9 C18.01 10.485 18.01 10.485 17 12 C17.495 12.61875 17.99 13.2375 18.5 13.875 C20 16 20 16 20 18 C20.99 18 21.98 18 23 18 C23 18.99 23 19.98 23 21 C20.3125 21.4375 20.3125 21.4375 17 21 C15.48331939 19.31479932 14.39466097 17.59701128 13.2734375 15.62890625 C11.67879318 13.58913115 10.51005093 13.37597809 8 13 C7.67 14.65 7.34 16.3 7 18 C8.32 18 9.64 18 11 18 C11 18.99 11 19.98 11 21 C7.37 21 3.74 21 0 21 C0 20.01 0 19.02 0 18 C0.99 18 1.98 18 3 18 C3 13.05 3 8.1 3 3 C2.01 3 1.02 3 0 3 C0 2.01 0 1.02 0 0 Z M7 3 C7 4.98 7 6.96 7 9 C11.12973628 8.43260132 11.12973628 8.43260132 15 7 C14.67 6.01 14.34 5.02 14 4 C11.69 3.67 9.38 3.34 7 3 Z " fill="#FEF5F4" transform="translate(587,125)"/>
<path d="M0 0 C1.76537109 -0.00386719 1.76537109 -0.00386719 3.56640625 -0.0078125 C6.4375 0.125 6.4375 0.125 7.4375 1.125 C7.47813832 2.79117115 7.480221 4.45888095 7.4375 6.125 C5.7875 6.455 4.1375 6.785 2.4375 7.125 C2.4375 7.785 2.4375 8.445 2.4375 9.125 C1.1175 8.795 -0.2025 8.465 -1.5625 8.125 C-0.2425 6.805 1.0775 5.485 2.4375 4.125 C1.138125 4.24875 -0.16125 4.3725 -1.5 4.5 C-2.23089844 4.56960937 -2.96179688 4.63921875 -3.71484375 4.7109375 C-4.32457031 4.84757813 -4.93429687 4.98421875 -5.5625 5.125 C-6.70602916 7.41205831 -6.66584439 8.71764762 -6.625 11.25 C-6.604375 12.52875 -6.58375 13.8075 -6.5625 15.125 C-2.16996227 16.68772189 -2.16996227 16.68772189 2.4375 17.125 C2.4375 16.135 2.4375 15.145 2.4375 14.125 C0.4575 14.125 -1.5225 14.125 -3.5625 14.125 C-3.8925 13.135 -4.2225 12.145 -4.5625 11.125 C-0.2725 11.125 4.0175 11.125 8.4375 11.125 C7.94921875 17.1796875 7.94921875 17.1796875 7.4375 19.125 C4.09701897 21.35198735 2.90464419 21.3961921 -1 21.375 C-1.94746094 21.38015625 -2.89492188 21.3853125 -3.87109375 21.390625 C-6.61862813 21.1194605 -8.24018663 20.58234338 -10.5625 19.125 C-12.87025975 16.12491233 -12.97407586 12.88067377 -12.890625 9.16015625 C-12.35423147 5.83323925 -10.67401942 3.67124401 -8.5625 1.125 C-5.69616205 -0.30816898 -3.19014499 -0.00700361 0 0 Z " fill="#FEF5F6" transform="translate(748.5625,124.875)"/>
<path d="M0 0 C1.17949219 0.01804687 2.35898437 0.03609375 3.57421875 0.0546875 C4.92966797 0.08949219 4.92966797 0.08949219 6.3125 0.125 C6.3125 2.435 6.3125 4.745 6.3125 7.125 C4.5625 7.875 4.5625 7.875 2.3125 8.125 C0.0625 6.1875 0.0625 6.1875 -1.6875 4.125 C-2.6775 4.455 -3.6675 4.785 -4.6875 5.125 C-4.6875 5.785 -4.6875 6.445 -4.6875 7.125 C-3.98882813 7.27195313 -3.29015625 7.41890625 -2.5703125 7.5703125 C0.18540258 8.24948307 2.71685359 8.97280712 5.3125 10.125 C7.0625 13.0625 7.0625 13.0625 7.3125 16.125 C6.5625 18.4375 6.5625 18.4375 5.3125 20.125 C2.30936252 21.62656874 -0.47817522 21.21781204 -3.8125 21.1875 C-5.09382812 21.17847656 -6.37515625 21.16945312 -7.6953125 21.16015625 C-9.17644531 21.14275391 -9.17644531 21.14275391 -10.6875 21.125 C-10.6875 18.815 -10.6875 16.505 -10.6875 14.125 C-9.3675 14.125 -8.0475 14.125 -6.6875 14.125 C-6.3575 14.785 -6.0275 15.445 -5.6875 16.125 C-2.11214981 17.2011054 -2.11214981 17.2011054 1.3125 16.125 C1.3125 15.465 1.3125 14.805 1.3125 14.125 C0.69761719 13.95484375 0.08273437 13.7846875 -0.55078125 13.609375 C-7.09610042 11.64682316 -7.09610042 11.64682316 -9.8125 9.25 C-10.97382355 6.4296428 -10.73436715 4.96649655 -9.6875 2.125 C-6.05554504 -0.29630331 -4.30400652 -0.08522785 0 0 Z " fill="#FEF4F4" transform="translate(896.6875,124.875)"/>
<path d="M0 0 C1.76923828 0.04060547 1.76923828 0.04060547 3.57421875 0.08203125 C4.47785156 0.11683594 5.38148438 0.15164062 6.3125 0.1875 C6.3125 2.8275 6.3125 5.4675 6.3125 8.1875 C4.9925 8.1875 3.6725 8.1875 2.3125 8.1875 C1.9825 6.8675 1.6525 5.5475 1.3125 4.1875 C-1.65815509 4.52977572 -1.65815509 4.52977572 -4.6875 5.1875 C-5.0175 5.8475 -5.3475 6.5075 -5.6875 7.1875 C-5.08421875 7.28546875 -4.4809375 7.3834375 -3.859375 7.484375 C-0.11667384 8.18462231 2.74044766 8.80613177 5.9375 10.9375 C7.3125 13.1875 7.3125 13.1875 7.25 16.3125 C6.3125 19.1875 6.3125 19.1875 3.3125 21.1875 C-0.04296875 21.3828125 -0.04296875 21.3828125 -3.875 21.3125 C-5.14730469 21.29445312 -6.41960938 21.27640625 -7.73046875 21.2578125 C-8.70628906 21.23460937 -9.68210937 21.21140625 -10.6875 21.1875 C-10.6875 18.8775 -10.6875 16.5675 -10.6875 14.1875 C-9.3675 14.1875 -8.0475 14.1875 -6.6875 14.1875 C-6.3575 14.8475 -6.0275 15.5075 -5.6875 16.1875 C-2.11214981 17.2636054 -2.11214981 17.2636054 1.3125 16.1875 C1.6425 15.1975 1.9725 14.2075 2.3125 13.1875 C1.61382813 13.06632813 0.91515625 12.94515625 0.1953125 12.8203125 C-0.71476563 12.65273437 -1.62484375 12.48515625 -2.5625 12.3125 C-3.46742188 12.15007812 -4.37234375 11.98765625 -5.3046875 11.8203125 C-7.6875 11.1875 -7.6875 11.1875 -9.6875 9.1875 C-10.236708 4.02494482 -10.236708 4.02494482 -8.5859375 1.5078125 C-5.75035955 -0.46425612 -3.40353691 -0.10109516 0 0 Z " fill="#FEF3F3" transform="translate(938.6875,124.8125)"/>
<path d="M0 0 C2.75569447 2.18159145 4.43588747 3.87177494 6 7 C6.37712577 11.99691647 6.09290612 14.99067725 3 19 C-1.01858595 21.6790573 -4.27641721 21.69610694 -9 21 C-11.87029869 19.20606332 -13.49131638 18.01736724 -15 15 C-15.55512815 10.36786507 -15.6364242 7.01827873 -13.125 3 C-9.21191333 -0.6829051 -5.19128557 -0.82486748 0 0 Z M-10 6 C-11.25276086 9.60168748 -11.29995148 11.2895886 -9.8125 14.8125 C-8.18276355 17.0431537 -8.18276355 17.0431537 -6.125 18.0625 C-3.78919963 18.15431809 -3.78919963 18.15431809 -1.25 16.5 C1.29785982 14.11139119 1.29785982 14.11139119 1.625 10.5 C1.31800788 6.85342634 1.31800788 6.85342634 -1.4375 4.5625 C-5.31343079 2.19912757 -6.37254814 3.2794111 -10 6 Z " fill="#FEF5F4" transform="translate(581,125)"/>
<path d="M0 0 C6.27 0 12.54 0 19 0 C19 2.64 19 5.28 19 8 C17.68 8 16.36 8 15 8 C15 6.35 15 4.7 15 3 C14.01 3 13.02 3 12 3 C12 7.95 12 12.9 12 18 C13.98 18 15.96 18 18 18 C17.67 18.99 17.34 19.98 17 21 C12.05 21 7.1 21 2 21 C2 20.01 2 19.02 2 18 C3.65 18 5.3 18 7 18 C7 13.05 7 8.1 7 3 C6.01 3 5.02 3 4 3 C4 4.65 4 6.3 4 8 C2.68 8 1.36 8 0 8 C0 5.36 0 2.72 0 0 Z " fill="#FEF7F6" transform="translate(546,125)"/>
<path d="M0 0 C2.97 0 5.94 0 9 0 C9 1.65 9 3.3 9 5 C9.99 5 10.98 5 12 5 C12 3.35 12 1.7 12 0 C14.97 0 17.94 0 21 0 C21 3 21 3 18.625 5.5 C17.325625 6.7375 17.325625 6.7375 16 8 C13.70366176 11.44450737 13.45983515 13.93812283 13 18 C14.65 18 16.3 18 18 18 C18 18.99 18 19.98 18 21 C13.05 21 8.1 21 3 21 C3 20.01 3 19.02 3 18 C4.65 18 6.3 18 8 18 C7.63871659 12.09903768 5.99137646 8.40170489 2 4 C1.34 3.67 0.68 3.34 0 3 C0 2.01 0 1.02 0 0 Z " fill="#FEF5F4" transform="translate(905,125)"/>
<path d="M0 0 C2.97 0 5.94 0 9 0 C9.33 1.98 9.66 3.96 10 6 C10.66 5.67 11.32 5.34 12 5 C12.65555119 2.47266765 12.65555119 2.47266765 13 0 C15.97 0 18.94 0 22 0 C22 0.99 22 1.98 22 3 C21.01 3.33 20.02 3.66 19 4 C15.51914564 8.21525427 13.41237325 12.50169004 13 18 C14.65 18 16.3 18 18 18 C18 18.99 18 19.98 18 21 C13.38 21 8.76 21 4 21 C4 20.01 4 19.02 4 18 C5.65 18 7.3 18 9 18 C7.76217638 12.84240159 6.07291897 9.40451719 3 5 C3 4.34 3 3.68 3 3 C2.01 3 1.02 3 0 3 C0 2.01 0 1.02 0 0 Z " fill="#FEF5F3" transform="translate(608,125)"/>
<path d="M0 0 C5.61 0 11.22 0 17 0 C17 0.99 17 1.98 17 3 C15.02 3 13.04 3 11 3 C11 7.95 11 12.9 11 18 C12.98 18 14.96 18 17 18 C17 18.99 17 19.98 17 21 C11.39 21 5.78 21 0 21 C0 20.01 0 19.02 0 18 C1.98 18 3.96 18 6 18 C6 13.05 6 8.1 6 3 C4.02 3 2.04 3 0 3 C0 2.01 0 1.02 0 0 Z " fill="#FEF7F7" transform="translate(441,125)"/>
<path d="M0 0 C17.49 0 34.98 0 53 0 C53 16 53 16 51 23 C50.34 22.67 49.68 22.34 49 22 C48.957279 20.33388095 48.95936168 18.66617115 49 17 C49.495 16.505 49.495 16.505 50 16 C50.66 11.05 51.32 6.1 52 1 C35.17 1 18.34 1 1 1 C1.33 2.98 1.66 4.96 2 7 C2 7.99 2 8.98 2 10 C1.34 10 0.68 10 0 10 C0 11.65 0 13.3 0 15 C-0.33 15 -0.66 15 -1 15 C-1.02749766 13.62511713 -1.0466164 12.25006609 -1.0625 10.875 C-1.07410156 10.10929687 -1.08570313 9.34359375 -1.09765625 8.5546875 C-1 6 -1 6 0 0 Z " fill="#FEF1EE" transform="translate(172,9)"/>
<path d="M0 0 C2.4294516 3.6441774 2.16179575 5.71241272 2 10 C1.34 10 0.68 10 0 10 C0.33 14.95 0.66 19.9 1 25 C17.17 25 33.34 25 50 25 C50.33 21.04 50.66 17.08 51 13 C51.33 13 51.66 13 52 13 C52.0272415 14.41655793 52.04650467 15.83327045 52.0625 17.25 C52.07410156 18.03890625 52.08570313 18.8278125 52.09765625 19.640625 C52 22 52 22 51 26 C33.51 26 16.02 26 -2 26 C-0.875 6.875 -0.875 6.875 0 0 Z " fill="#FEF2F0" transform="translate(157,140)"/>
<path d="M0 0 C0.33 0 0.66 0 1 0 C1.26455255 7.80430008 0.23545853 13.96951953 -1 22 C-18.49 22 -35.98 22 -54 22 C-55.125 16.375 -55.125 16.375 -53 13 C-53 15.64 -53 18.28 -53 21 C-46.21863504 20.93310565 -39.43785143 20.8433414 -32.65698242 20.73754883 C-30.34943551 20.70426144 -28.04180643 20.67624151 -25.73413086 20.65356445 C-22.42005338 20.62008892 -19.10673155 20.56777602 -15.79296875 20.51171875 C-14.24128242 20.50213387 -14.24128242 20.50213387 -12.6582489 20.49235535 C-11.6974794 20.47256119 -10.7367099 20.45276703 -9.74682617 20.43237305 C-8.90077316 20.42126999 -8.05472015 20.41016693 -7.18302917 20.39872742 C-4.52531156 19.91329878 -3.63782378 19.10914695 -2 17 C-1.41385971 15.08526623 -1.41385971 15.08526623 -1.26953125 12.98828125 C-1.18896484 12.23095703 -1.10839844 11.47363281 -1.02539062 10.69335938 C-0.95513672 9.90767578 -0.88488281 9.12199219 -0.8125 8.3125 C-0.73064453 7.51521484 -0.64878906 6.71792969 -0.56445312 5.89648438 C-0.36449155 3.932156 -0.18067746 1.96619588 0 0 Z " fill="#FEF4F0" transform="translate(70,144)"/>
<path d="M0 0 C6.27 0 12.54 0 19 0 C19 0.99 19 1.98 19 3 C18.34 2.67 17.68 2.34 17 2 C14.36 2 11.72 2 9 2 C8.67 8.27 8.34 14.54 8 21 C6.35 21 4.7 21 3 21 C4.32 20.67 5.64 20.34 7 20 C7 15.71 7 11.42 7 7 C6.34 7 5.68 7 5 7 C5 8.98 5 10.96 5 13 C4.67 13 4.34 13 4 13 C4 9.7 4 6.4 4 3 C2.68 3 1.36 3 0 3 C0 2.01 0 1.02 0 0 Z " fill="#FEEEEE" transform="translate(471,125)"/>
<path d="M0 0 C17.16 0 34.32 0 52 0 C52 0.33 52 0.66 52 1 C51.39056549 1.00808685 50.78113098 1.01617371 50.15322876 1.02450562 C43.82687016 1.11036845 37.50083154 1.20986327 31.17480469 1.31738281 C28.81190349 1.35573527 26.44894266 1.39057692 24.0859375 1.421875 C20.6950952 1.46738966 17.30466576 1.52540619 13.9140625 1.5859375 C12.32182358 1.60326431 12.32182358 1.60326431 10.69741821 1.62094116 C9.22611954 1.6507457 9.22611954 1.6507457 7.72509766 1.68115234 C6.42603989 1.70113785 6.42603989 1.70113785 5.10073853 1.7215271 C2.78242358 1.81220713 2.78242358 1.81220713 1 4 C1 5.87511574 1.00737338 7.75069477 1.0625 9.625 C0.95155436 13.84093426 -0.05947194 17.9019849 -1 22 C-1.33 22 -1.66 22 -2 22 C-2.26455255 14.19569992 -1.23545853 8.03048047 0 0 Z " fill="#FEEFED" transform="translate(103,9)"/>
<path d="M0 0 C17.49 0 34.98 0 53 0 C53 0.33 53 0.66 53 1 C27.755 1.495 27.755 1.495 2 2 C1.34 6.29 0.68 10.58 0 15 C-0.33 15 -0.66 15 -1 15 C-1.02749766 13.62511713 -1.0466164 12.25006609 -1.0625 10.875 C-1.07410156 10.10929687 -1.08570312 9.34359375 -1.09765625 8.5546875 C-1 6 -1 6 0 0 Z " fill="#FFEFED" transform="translate(33,9)"/>
<path d="M0 0 C2.0625 0.4375 2.0625 0.4375 4 1 C4.33 2.32 4.66 3.64 5 5 C4.34 5 3.68 5 3 5 C3 9.29 3 13.58 3 18 C1.35 18 -0.3 18 -2 18 C-1.67 14.7 -1.34 11.4 -1 8 C-1.66 8 -2.32 8 -3 8 C-3 7.34 -3 6.68 -3 6 C-2.34 6 -1.68 6 -1 6 C-1.0309375 4.7934375 -1.0309375 4.7934375 -1.0625 3.5625 C-1 1 -1 1 0 0 Z " fill="#FDFCFC" transform="translate(824,127)"/>
<path d="M0 0 C1.32 0 2.64 0 4 0 C3.67 5.94 3.34 11.88 3 18 C1.68 18.33 0.36 18.66 -1 19 C-0.67 12.73 -0.34 6.46 0 0 Z " fill="#FCFCFC" transform="translate(402,126)"/>
<path d="M0 0 C0.66 0.33 1.32 0.66 2 1 C3.54227856 1.08991092 5.08840895 1.11756961 6.63330078 1.11352539 C7.59414581 1.11344986 8.55499084 1.11337433 9.54495239 1.11329651 C11.10438065 1.10555458 11.10438065 1.10555458 12.6953125 1.09765625 C13.75789276 1.0962413 14.82047302 1.09482635 15.91525269 1.09336853 C19.31853009 1.08775834 22.72174238 1.07520409 26.125 1.0625 C28.42838447 1.05748631 30.73176997 1.05292318 33.03515625 1.04882812 C38.69012649 1.0377856 44.34505859 1.02103752 50 1 C48 3 48 3 45.86129761 3.24050903 C44.9774942 3.23606781 44.0936908 3.23162659 43.18310547 3.22705078 C42.18221893 3.22689972 41.1813324 3.22674866 40.15011597 3.22659302 C38.52506638 3.21110916 38.52506638 3.21110916 36.8671875 3.1953125 C35.76021515 3.1924826 34.6532428 3.18965271 33.51272583 3.18673706 C29.96670863 3.17551519 26.42094125 3.15040691 22.875 3.125 C20.47526406 3.1149728 18.07552417 3.1058465 15.67578125 3.09765625 C9.78376849 3.07556932 3.89190209 3.04207207 -2 3 C-2.33 2.34 -2.66 1.68 -3 1 C-2.01 0.67 -1.02 0.34 0 0 Z " fill="#FEEFED" transform="translate(333,108)"/>
<path d="M0 0 C2.01538086 -0.38818359 2.01538086 -0.38818359 4.46484375 -0.3984375 C5.34720703 -0.40230469 6.22957031 -0.40617187 7.13867188 -0.41015625 C8.5240918 -0.39275391 8.5240918 -0.39275391 9.9375 -0.375 C11.31711914 -0.39240234 11.31711914 -0.39240234 12.72460938 -0.41015625 C13.60826172 -0.40628906 14.49191406 -0.40242188 15.40234375 -0.3984375 C16.21179443 -0.39505371 17.02124512 -0.39166992 17.85522461 -0.38818359 C20.45824738 0.08293834 21.34683103 0.98903827 23 3 C22.67 3.66 22.34 4.32 22 5 C21.5877417 4.51104248 21.1754834 4.02208496 20.75073242 3.51831055 C18.62846375 1.67778776 17.75064629 1.64472226 14.98828125 1.70703125 C14.23095703 1.71669922 13.47363281 1.72636719 12.69335938 1.73632812 C11.90767578 1.76146484 11.12199219 1.78660156 10.3125 1.8125 C9.51521484 1.82603516 8.71792969 1.83957031 7.89648438 1.85351562 C5.93070033 1.88882911 3.96526418 1.94263553 2 2 C1.66226562 2.63808594 1.32453125 3.27617188 0.9765625 3.93359375 C0.30753906 5.17302734 0.30753906 5.17302734 -0.375 6.4375 C-0.81585938 7.26121094 -1.25671875 8.08492187 -1.7109375 8.93359375 C-3 11 -3 11 -5 12 C-4.54738642 10.56068883 -4.08767021 9.12361001 -3.625 7.6875 C-3.24214844 6.48673828 -3.24214844 6.48673828 -2.8515625 5.26171875 C-2 3 -2 3 0 0 Z " fill="#FEF1EF" transform="translate(452,34)"/>
<path d="M0 0 C0.33 0 0.66 0 1 0 C0.6875 3.375 0.6875 3.375 0 7 C-5.06886284 10.37924189 -11.04881414 9.32728923 -17 9.3125 C-18.29679687 9.32861328 -19.59359375 9.34472656 -20.9296875 9.36132812 C-22.16976563 9.36197266 -23.40984375 9.36261719 -24.6875 9.36328125 C-26.39486328 9.36775269 -26.39486328 9.36775269 -28.13671875 9.37231445 C-31 9 -31 9 -32.89453125 7.47729492 C-33.44173828 6.74603394 -33.44173828 6.74603394 -34 6 C-33.67 5.01 -33.34 4.02 -33 3 C-32.43925781 3.9746521 -32.43925781 3.9746521 -31.8671875 4.96899414 C-30.1444406 7.24987964 -30.1444406 7.24987964 -27.3203125 7.50170898 C-26.26585937 7.49985596 -25.21140625 7.49800293 -24.125 7.49609375 C-22.97515625 7.49673828 -21.8253125 7.49738281 -20.640625 7.49804688 C-18.83851563 7.46807617 -18.83851563 7.46807617 -17 7.4375 C-15.79859375 7.44458984 -14.5971875 7.45167969 -13.359375 7.45898438 C-7.41558531 7.77587935 -7.41558531 7.77587935 -2.17578125 5.60961914 C-0.82836216 3.7650315 -0.38571079 2.23712261 0 0 Z " fill="#FEF1EE" transform="translate(476,102)"/>
<path d="M0 0 C0.66 0.33 1.32 0.66 2 1 C2.08703823 4.43734063 2.14040272 7.87439837 2.1875 11.3125 C2.22520508 12.77719727 2.22520508 12.77719727 2.26367188 14.27148438 C2.27817383 15.67817383 2.27817383 15.67817383 2.29296875 17.11328125 C2.31653442 18.40939331 2.31653442 18.40939331 2.34057617 19.73168945 C1.92559189 22.49557403 1.19003327 23.32041823 -1 25 C-3.4375 25.9375 -3.4375 25.9375 -6 26 C-8.3125 24.0625 -8.3125 24.0625 -10 22 C-7.36 22.33 -4.72 22.66 -2 23 C0.37473224 19.43790164 0.24056249 17.84105601 0.1875 13.625 C0.18105469 12.50351562 0.17460938 11.38203125 0.16796875 10.2265625 C0.08391478 7.05347493 0.08391478 7.05347493 -0.57421875 4.2109375 C-1 2 -1 2 0 0 Z " fill="#FFEFEB" transform="translate(539,36)"/>
<path d="M0 0 C0.66 0.33 1.32 0.66 2 1 C1.814375 1.969375 1.62875 2.93875 1.4375 3.9375 C1.293125 4.948125 1.14875 5.95875 1 7 C1.33 7.33 1.66 7.66 2 8 C2.23192865 9.51469448 2.41215238 11.03754562 2.5625 12.5625 C2.64628906 13.38878906 2.73007812 14.21507812 2.81640625 15.06640625 C2.87699219 15.70449219 2.93757813 16.34257812 3 17 C1.02 17 -0.96 17 -3 17 C-2.505 15.515 -2.505 15.515 -2 14 C-0.8105742 9.91602751 -0.92822373 6.23480017 -1 2 C-0.67 1.34 -0.34 0.68 0 0 Z " fill="#FDFCFC" transform="translate(364,128)"/>
<path d="M0 0 C0.33 0 0.66 0 1 0 C1.33 4.95 1.66 9.9 2 15 C1.34 15 0.68 15 0 15 C0 10.05 0 5.1 0 0 Z M-5 15 C-3.35 15 -1.7 15 0 15 C0 15.33 0 15.66 0 16 C1.65 16 3.3 16 5 16 C5 15.67 5 15.34 5 15 C6.98 15 8.96 15 11 15 C10.67 15.99 10.34 16.98 10 18 C5.05 18 0.1 18 -5 18 C-5 17.01 -5 16.02 -5 15 Z " fill="#FEF0EF" transform="translate(553,128)"/>
<path d="M0 0 C2.31 0 4.62 0 7 0 C6.34 1.32 5.68 2.64 5 4 C4.34 4 3.68 4 3 4 C3 5.98 3 7.96 3 10 C3.99 10 4.98 10 6 10 C6 12.64 6 15.28 6 18 C5.34 17.01 4.68 16.02 4 15 C4.33 14.34 4.66 13.68 5 13 C4.34 13 3.68 13 3 13 C2.67 14.32 2.34 15.64 2 17 C2 12.38 2 7.76 2 3 C1.34 3 0.68 3 0 3 C0 2.01 0 1.02 0 0 Z " fill="#FEECED" transform="translate(777,125)"/>
<path d="M0 0 C0.33 0 0.66 0 1 0 C0.88986124 4.06304554 0.75929135 8.12518667 0.625 12.1875 C0.5940625 13.33798828 0.563125 14.48847656 0.53125 15.67382812 C0.49257812 16.78564453 0.45390625 17.89746094 0.4140625 19.04296875 C0.36693115 20.57473755 0.36693115 20.57473755 0.31884766 22.13745117 C-0.00876795 25.07871688 -0.77312194 27.32024003 -2 30 C-2.33 30 -2.66 30 -3 30 C-3.02685412 27.68756208 -3.04632841 25.3750373 -3.0625 23.0625 C-3.07410156 21.77472656 -3.08570313 20.48695312 -3.09765625 19.16015625 C-3 16 -3 16 -2 15 C-2.020625 13.989375 -2.04125 12.97875 -2.0625 11.9375 C-1.99325206 7.57487957 -1.17426012 4.18330167 0 0 Z " fill="#FEF5F1" transform="translate(220,46)"/>
<path d="M0 0 C0.33 0 0.66 0 1 0 C1 1.98 1 3.96 1 6 C2.65 6 4.3 6 6 6 C6 6.99 6 7.98 6 9 C1.38 9 -3.24 9 -8 9 C-8 8.01 -8 7.02 -8 6 C-6.68 6 -5.36 6 -4 6 C-4 6.66 -4 7.32 -4 8 C-2.68 7.67 -1.36 7.34 0 7 C-0.185625 6.030625 -0.37125 5.06125 -0.5625 4.0625 C-0.706875 3.051875 -0.85125 2.04125 -1 1 C-0.67 0.67 -0.34 0.34 0 0 Z " fill="#FFF1EC" transform="translate(620,137)"/>
<path d="M0 0 C0.33 0 0.66 0 1 0 C1 1.65 1 3.3 1 5 C2.32 5 3.64 5 5 5 C5 5.99 5 6.98 5 8 C1.37 8 -2.26 8 -6 8 C-6 7.01 -6 6.02 -6 5 C-5.01 5 -4.02 5 -3 5 C-2.67 4.01 -2.34 3.02 -2 2 C-2 3.32 -2 4.64 -2 6 C-1.34 6 -0.68 6 0 6 C0 4.02 0 2.04 0 0 Z " fill="#FFF1ED" transform="translate(593,138)"/>
<path d="M0 0 C1.98 0 3.96 0 6 0 C6 0.33 6 0.66 6 1 C7.98 1 9.96 1 12 1 C12 0.67 12 0.34 12 0 C13.65 0 15.3 0 17 0 C17 0.99 17 1.98 17 3 C11.39 3 5.78 3 0 3 C0 2.01 0 1.02 0 0 Z " fill="#FFEEEE" transform="translate(441,143)"/>
<path d="M0 0 C0.99 0 1.98 0 3 0 C3.41815082 1.74480197 3.80873982 3.49622557 4.1875 5.25 C4.40792969 6.22453125 4.62835937 7.1990625 4.85546875 8.203125 C5 11 5 11 3.55078125 13.359375 C2.78314453 14.17148438 2.78314453 14.17148438 2 15 C0.05909174 13.05909174 0.60080565 9.52706098 0.4375 6.9375 C0.35371094 5.64714844 0.26992188 4.35679687 0.18359375 3.02734375 C0.12300781 2.02832031 0.06242188 1.02929688 0 0 Z " fill="#FCFDFB" transform="translate(760,127)"/>
<path d="M0 0 C1.485 0.99 1.485 0.99 3 2 C5.44679185 2.27908997 5.44679185 2.27908997 8.0625 2.1875 C8.94035156 2.18105469 9.81820313 2.17460938 10.72265625 2.16796875 C13.03125991 2.14279132 13.03125991 2.14279132 15 1 C14.67 2.32 14.34 3.64 14 5 C10.04 5 6.08 5 2 5 C1.34 3.35 0.68 1.7 0 0 Z " fill="#FFF1EE" transform="translate(427,88)"/>
<path d="M0 0 C0.33 0 0.66 0 1 0 C1 2.97 1 5.94 1 9 C1.99 9.33 2.98 9.66 4 10 C4 9.34 4 8.68 4 8 C4.99 8 5.98 8 7 8 C7 8.99 7 9.98 7 11 C3.37 11 -0.26 11 -4 11 C-4 10.01 -4 9.02 -4 8 C-2.68 8 -1.36 8 0 8 C0 5.36 0 2.72 0 0 Z " fill="#FEEBE9" transform="translate(1006,135)"/>
<path d="M0 0 C0.33 0 0.66 0 1 0 C1.02684312 2.81256281 1.04676188 5.62487241 1.0625 8.4375 C1.07087891 9.23994141 1.07925781 10.04238281 1.08789062 10.86914062 C1.0965143 12.91295221 1.0522815 14.95683902 1 17 C0.67 17.33 0.34 17.66 0 18 C-0.23192865 19.51469448 -0.41215238 21.03754562 -0.5625 22.5625 C-0.64628906 23.38878906 -0.73007813 24.21507813 -0.81640625 25.06640625 C-0.87699219 25.70449219 -0.93757812 26.34257813 -1 27 C-1.33 27 -1.66 27 -2 27 C-2.02888514 23.85418577 -2.04675923 20.70840531 -2.0625 17.5625 C-2.07087891 16.66466797 -2.07925781 15.76683594 -2.08789062 14.84179688 C-2.09111328 13.98779297 -2.09433594 13.13378906 -2.09765625 12.25390625 C-2.10551147 11.06776733 -2.10551147 11.06776733 -2.11352539 9.85766602 C-2 8 -2 8 -1 7 C-0.63239269 4.67182036 -0.29758419 2.3381615 0 0 Z " fill="#FEF5F1" transform="translate(215,90)"/>
<path d="M0 0 C0.33 0 0.66 0 1 0 C1 2.64 1 5.28 1 8 C4.465 7.505 4.465 7.505 8 7 C8 7.99 8 8.98 8 10 C4.37 10 0.74 10 -3 10 C-3 9.01 -3 8.02 -3 7 C-2.01 7 -1.02 7 0 7 C0 4.69 0 2.38 0 0 Z " fill="#FFEFEE" transform="translate(526,136)"/>
<path d="M0 0 C1.65 0 3.3 0 5 0 C5 0.33 5 0.66 5 1 C7.97 1.495 7.97 1.495 11 2 C11 1.34 11 0.68 11 0 C11.99 0 12.98 0 14 0 C14 0.99 14 1.98 14 3 C9.05 3 4.1 3 -1 3 C-0.67 2.01 -0.34 1.02 0 0 Z " fill="#FEF2F2" transform="translate(951,143)"/>
<path d="M0 0 C4.29 0 8.58 0 13 0 C12.67 0.99 12.34 1.98 12 3 C12 2.34 12 1.68 12 1 C10.68 1.33 9.36 1.66 8 2 C7.67 3.32 7.34 4.64 7 6 C7 5.01 7 4.02 7 3 C5.02 3 3.04 3 1 3 C0.67 2.01 0.34 1.02 0 0 Z " fill="#FEF0F1" transform="translate(744,136)"/>
<path d="M0 0 C0.33 0 0.66 0 1 0 C0.85856168 2.7294586 0.71200471 5.45848123 0.5625 8.1875 C0.52318359 8.95642578 0.48386719 9.72535156 0.44335938 10.51757812 C0.22492966 14.43251075 -0.08692108 18.17120688 -1 22 C-1.33 22 -1.66 22 -2 22 C-1.91621094 20.86820313 -1.83242187 19.73640625 -1.74609375 18.5703125 C-1.64293392 17.08856219 -1.54008547 15.60679018 -1.4375 14.125 C-1.38142578 13.37863281 -1.32535156 12.63226563 -1.26757812 11.86328125 C-0.86611075 7.80938458 -0.86611075 7.80938458 -2 4 C-1.0625 1.875 -1.0625 1.875 0 0 Z " fill="#FEF1F0" transform="translate(212,118)"/>
<path d="M0 0 C5.61 0 11.22 0 17 0 C17 0.99 17 1.98 17 3 C15.35 3 13.7 3 12 3 C12 2.67 12 2.34 12 2 C9.03 1.67 6.06 1.34 3 1 C3 1.66 3 2.32 3 3 C2.01 3 1.02 3 0 3 C0 2.01 0 1.02 0 0 Z " fill="#FFECEC" transform="translate(441,125)"/>
<path d="M0 0 C1.32 0.33 2.64 0.66 4 1 C3.34 2.98 2.68 4.96 2 7 C0.35 7 -1.3 7 -3 7 C-3.33 6.34 -3.66 5.68 -4 5 C-3.01 4.34 -2.02 3.68 -1 3 C-0.67 2.01 -0.34 1.02 0 0 Z " fill="#FFFFFF" transform="translate(331,131)"/>
<path d="M0 0 C0.33 0 0.66 0 1 0 C2.18609365 5.6932495 1.66251802 9.42567486 0 15 C-0.99 14.67 -1.98 14.34 -3 14 C-3 12.35 -3 10.7 -3 9 C-2.01 8.67 -1.02 8.34 0 8 C0 5.36 0 2.72 0 0 Z " fill="#FEF5F5" transform="translate(143,109)"/>
<path d="M0 0 C0.33 0 0.66 0 1 0 C1.11138159 5.45769811 0.91657981 10.61509359 0 16 C-2.36360267 12.45459599 -2.32141146 11.17834902 -2 7 C-1.44430166 4.61432955 -0.74783612 2.33698788 0 0 Z " fill="#FEF4F0" transform="translate(139,146)"/>
<path d="M0 0 C0.99 0 1.98 0 3 0 C3 0.66 3 1.32 3 2 C3.5775 1.67 4.155 1.34 4.75 1 C7 0 7 0 11 0 C11 0.99 11 1.98 11 3 C7.37 3 3.74 3 0 3 C0 2.01 0 1.02 0 0 Z " fill="#FFEDEA" transform="translate(649,143)"/>
<path d="M0 0 C2.97 0 5.94 0 9 0 C8.67 0.99 8.34 1.98 8 3 C7.01 2.67 6.02 2.34 5 2 C4.01 3.485 4.01 3.485 3 5 C2.01 4.34 1.02 3.68 0 3 C0 2.01 0 1.02 0 0 Z " fill="#FFEDEC" transform="translate(905,125)"/>
<path d="M0 0 C1.1446875 0.3403125 1.1446875 0.3403125 2.3125 0.6875 C-1.4375 2.6875 -1.4375 2.6875 -3.6875 2.6875 C-4.0175 4.9975 -4.3475 7.3075 -4.6875 9.6875 C-5.0175 9.6875 -5.3475 9.6875 -5.6875 9.6875 C-6.04924071 3.29674751 -6.04924071 3.29674751 -4.5 0.6875 C-2.6875 -0.3125 -2.6875 -0.3125 0 0 Z " fill="#FEF0F0" transform="translate(398.6875,98.3125)"/>
<path d="M0 0 C0.66 0 1.32 0 2 0 C-0.89066059 9.59453303 -0.89066059 9.59453303 -4 13 C-4.30938864 8.46229996 -3.96407351 6.43832528 -1 3 C-0.67 2.01 -0.34 1.02 0 0 Z " fill="#FEF4EF" transform="translate(447,74)"/>
<path d="M0 0 C0.33 0 0.66 0 1 0 C2.13255245 4.78188811 1.83808778 8.91651715 1.25390625 13.73046875 C0.94440878 16.11628499 0.94440878 16.11628499 1 19 C0.34 18.67 -0.32 18.34 -1 18 C-1.09706112 11.88514973 -0.77040851 6.06696699 0 0 Z " fill="#FEF1EE" transform="translate(98,49)"/>
<path d="M0 0 C0.33 0.99 0.66 1.98 1 3 C0 4 0 4 -2.50390625 4.09765625 C-4.01791016 4.08025391 -4.01791016 4.08025391 -5.5625 4.0625 C-6.57441406 4.05347656 -7.58632813 4.04445312 -8.62890625 4.03515625 C-9.41136719 4.02355469 -10.19382812 4.01195312 -11 4 C-11 3.01 -11 2.02 -11 1 C-10.34 1 -9.68 1 -9 1 C-9 1.66 -9 2.32 -9 3 C-5.26512223 2.5020163 -3.18762365 2.12508244 0 0 Z " fill="#FFF1EF" transform="translate(344,142)"/>
<path d="M0 0 C0.33 0 0.66 0 1 0 C1.93213141 6.26039609 2.20927172 11.02197063 0 17 C-0.33 17 -0.66 17 -1 17 C-0.67 11.39 -0.34 5.78 0 0 Z " fill="#FEEEED" transform="translate(21,113)"/>
<path d="M0 0 C1.134375 0.020625 2.26875 0.04125 3.4375 0.0625 C3.4375 1.0525 3.4375 2.0425 3.4375 3.0625 C2.7775 3.0625 2.1175 3.0625 1.4375 3.0625 C1.4375 2.4025 1.4375 1.7425 1.4375 1.0625 C-1.620452 2.79809438 -4.19629989 4.44722619 -6.5625 7.0625 C-4.33277027 0.07601351 -4.33277027 0.07601351 0 0 Z " fill="#FFEDEE" transform="translate(669.5625,124.9375)"/>
<path d="M0 0 C2.64 0 5.28 0 8 0 C8.66 1.65 9.32 3.3 10 5 C6.535 3.02 6.535 3.02 3 1 C3 1.66 3 2.32 3 3 C2.01 3 1.02 3 0 3 C0 2.01 0 1.02 0 0 Z " fill="#FFEDEF" transform="translate(459,125)"/>
<path d="M0 0 C1.134375 0.020625 2.26875 0.04125 3.4375 0.0625 C3.4375 1.0525 3.4375 2.0425 3.4375 3.0625 C2.7775 3.0625 2.1175 3.0625 1.4375 3.0625 C1.4375 2.4025 1.4375 1.7425 1.4375 1.0625 C-1.19151288 2.58456009 -3.40615964 3.90615964 -5.5625 6.0625 C-4.48849278 0.07874549 -4.48849278 0.07874549 0 0 Z " fill="#FFEEEF" transform="translate(1008.5625,124.9375)"/>
<path d="M0 0 C2.3125 -0.3125 2.3125 -0.3125 5 0 C6.875 2.125 6.875 2.125 8 5 C7.6875 8.3125 7.6875 8.3125 7 11 C6.67 11 6.34 11 6 11 C5.62875 9.1128125 5.62875 9.1128125 5.25 7.1875 C4.51162006 4.16442273 4.20617994 3.1940517 1.875 1 C1.25625 0.67 0.6375 0.34 0 0 Z " fill="#FDF3EE" transform="translate(524,82)"/>
<path d="M0 0 C0.35707031 0.50144531 0.71414063 1.00289062 1.08203125 1.51953125 C0.09203125 2.01453125 0.09203125 2.01453125 -0.91796875 2.51953125 C-1.57796875 2.18953125 -2.23796875 1.85953125 -2.91796875 1.51953125 C-4.95544505 1.29095011 -6.99837178 1.10928847 -9.04296875 0.95703125 C-10.68652344 0.83134766 -10.68652344 0.83134766 -12.36328125 0.703125 C-13.20632813 0.64253906 -14.049375 0.58195312 -14.91796875 0.51953125 C-14.91796875 0.18953125 -14.91796875 -0.14046875 -14.91796875 -0.48046875 C-12.81604178 -0.7293417 -10.71122911 -0.95394065 -8.60546875 -1.16796875 C-6.84783203 -1.35939453 -6.84783203 -1.35939453 -5.0546875 -1.5546875 C-1.91796875 -1.48046875 -1.91796875 -1.48046875 0 0 Z " fill="#FEF1F0" transform="translate(521.91796875,45.48046875)"/>
<path d="M0 0 C0.99 0.33 1.98 0.66 3 1 C3.33 2.98 3.66 4.96 4 7 C1.525 6.01 1.525 6.01 -1 5 C-0.67 3.35 -0.34 1.7 0 0 Z " fill="#FDFBFD" transform="translate(728,134)"/>
<path d="M0 0 C0.99 0.495 0.99 0.495 2 1 C2.625 3.5625 2.625 3.5625 3 6 C3.99 6.33 4.98 6.66 6 7 C5.01 7.99 4.02 8.98 3 10 C0.96564469 6.27034861 0 4.33094958 0 0 Z " fill="#FFFFFF" transform="translate(285,126)"/>
<path d="M0 0 C4.29 0 8.58 0 13 0 C13 0.33 13 0.66 13 1 C12.09507812 1.09087891 12.09507812 1.09087891 11.171875 1.18359375 C9.97304688 1.30927734 9.97304688 1.30927734 8.75 1.4375 C7.96109375 1.51871094 7.1721875 1.59992188 6.359375 1.68359375 C4.17635361 1.97634993 2.1226818 2.42064419 0 3 C0 2.01 0 1.02 0 0 Z " fill="#FFEEEE" transform="translate(333,125)"/>
<path d="M0 0 C-3.42346555 3.14958831 -6.44262737 3.56179109 -11 4 C-7.65667474 -0.27945633 -5.29105716 -0.4070044 0 0 Z " fill="#FEF4F0" transform="translate(533,108)"/>
<path d="M0 0 C0.99 0.33 1.98 0.66 3 1 C3 2.32 3 3.64 3 5 C1.35 5 -0.3 5 -2 5 C-1.34 3.35 -0.68 1.7 0 0 Z " fill="#FEFBF9" transform="translate(773,140)"/>
<path d="M0 0 C0.99 0.99 1.98 1.98 3 3 C2.67 3.66 2.34 4.32 2 5 C1.34 5 0.68 5 0 5 C-0.33 5.66 -0.66 6.32 -1 7 C-1.99 5.35 -2.98 3.7 -4 2 C-2.68 1.34 -1.36 0.68 0 0 Z " fill="#FDF1F1" transform="translate(470,131)"/>
<path d="M0 0 C2.475 0.495 2.475 0.495 5 1 C5.33 2.32 5.66 3.64 6 5 C5.38125 4.649375 4.7625 4.29875 4.125 3.9375 C3.42375 3.628125 2.7225 3.31875 2 3 C1.01 3.495 1.01 3.495 0 4 C0 2.68 0 1.36 0 0 Z " fill="#FFF1EE" transform="translate(984,139)"/>
<path d="M0 0 C0.99 0 1.98 0 3 0 C3 2.31 3 4.62 3 7 C1.68 7.33 0.36 7.66 -1 8 C-1.33 7.01 -1.66 6.02 -2 5 C-0.68 5.33 0.64 5.66 2 6 C2 4.35 2 2.7 2 1 C1.34 0.67 0.68 0.34 0 0 Z " fill="#FFEDEB" transform="translate(900,125)"/>
<path d="M0 0 C1.32 0.33 2.64 0.66 4 1 C4 2.32 4 3.64 4 5 C2.68 5 1.36 5 0 5 C0 3.35 0 1.7 0 0 Z " fill="#FFF0F2" transform="translate(561,128)"/>
<path d="M0 0 C3.63 0 7.26 0 11 0 C10.67 0.66 10.34 1.32 10 2 C7.69 1.67 5.38 1.34 3 1 C3 1.66 3 2.32 3 3 C2.01 3 1.02 3 0 3 C0 2.01 0 1.02 0 0 Z " fill="#FFECEC" transform="translate(674,125)"/>
<path d="M0 0 C0.66 0.99 1.32 1.98 2 3 C1.34 3.66 0.68 4.32 0 5 C-0.33 5.845625 -0.66 6.69125 -1 7.5625 C-2 10 -2 10 -4 11 C-3.52269162 9.5410574 -3.04308958 8.08286504 -2.5625 6.625 C-2.29566406 5.81289063 -2.02882813 5.00078125 -1.75390625 4.1640625 C-1 2 -1 2 0 0 Z " fill="#FEF3F1" transform="translate(442,55)"/>
<path d="M0 0 C2.46800047 1.15173355 4.04783565 2.04783565 6 4 C6.33 3.01 6.66 2.02 7 1 C7.33 1.66 7.66 2.32 8 3 C7.67 3.66 7.34 4.32 7 5 C5.35 5 3.7 5 2 5 C1.34 3.35 0.68 1.7 0 0 Z " fill="#FEF0EB" transform="translate(487,141)"/>
<path d="M0 0 C0.66 0 1.32 0 2 0 C2 1.98 2 3.96 2 6 C0.35 6 -1.3 6 -3 6 C-2.34 5.67 -1.68 5.34 -1 5 C-0.34444881 2.47266765 -0.34444881 2.47266765 0 0 Z " fill="#FFFAF8" transform="translate(414,139)"/>
<path d="M0 0 C0.66 1.32 1.32 2.64 2 4 C0.75 6.75 0.75 6.75 -1 9 C-1.66 9 -2.32 9 -3 9 C-2.01 6.03 -1.02 3.06 0 0 Z " fill="#FEF2F4" transform="translate(290,45)"/>
<path d="M0 0 C0.66 0 1.32 0 2 0 C2.33 1.65 2.66 3.3 3 5 C2.01 5 1.02 5 0 5 C0 3.35 0 1.7 0 0 Z " fill="#FFFFFF" transform="translate(690,129)"/>
<path d="M0 0 C0.33 0 0.66 0 1 0 C1 3.96 1 7.92 1 12 C0.67 12 0.34 12 0 12 C0 8.04 0 4.08 0 0 Z " fill="#FFFFFF" transform="translate(259,71)"/>
<path d="M0 0 C1.32 0.33 2.64 0.66 4 1 C3.67 1.99 3.34 2.98 3 4 C2.01 3.34 1.02 2.68 0 2 C0 1.34 0 0.68 0 0 Z " fill="#FFFFFF" transform="translate(713,132)"/>
<path d="M0 0 C2.31 0 4.62 0 7 0 C6.67 0.66 6.34 1.32 6 2 C4.35 2 2.7 2 1 2 C0.67 1.34 0.34 0.68 0 0 Z " fill="#FFFFFF" transform="translate(305,140)"/>
<path d="M0 0 C1.65 0 3.3 0 5 0 C4.67 0.66 4.34 1.32 4 2 C2.68 1.67 1.36 1.34 0 1 C0 0.67 0 0.34 0 0 Z " fill="#FFFFFF" transform="translate(369,140)"/>
<path d="M0 0 C0.33 0.99 0.66 1.98 1 3 C0.01 3.33 -0.98 3.66 -2 4 C-2 3.01 -2 2.02 -2 1 C-1.34 0.67 -0.68 0.34 0 0 Z " fill="#FFFFFF" transform="translate(503,138)"/>
<path d="M0 0 C0.99 0.99 1.98 1.98 3 3 C1.68 3 0.36 3 -1 3 C-0.67 2.01 -0.34 1.02 0 0 Z " fill="#FFFFFF" transform="translate(817,135)"/>
<path d="M0 0 C1.98 0.99 1.98 0.99 4 2 C3.01 2.495 3.01 2.495 2 3 C1.34 2.67 0.68 2.34 0 2 C0 1.34 0 0.68 0 0 Z " fill="#FFFFFF" transform="translate(963,140)"/>
<path d="M0 0 C2.475 0.495 2.475 0.495 5 1 C3.68 1.33 2.36 1.66 1 2 C0.67 1.34 0.34 0.68 0 0 Z " fill="#FFFFFF" transform="translate(573,139)"/>
<path d="M0 0 C0.66 0 1.32 0 2 0 C2 0.99 2 1.98 2 3 C1.01 2.67 0.02 2.34 -1 2 C-0.67 1.34 -0.34 0.68 0 0 Z " fill="#FFFFFF" transform="translate(987,135)"/>
<path d="M0 0 C0.33 0 0.66 0 1 0 C1 2.31 1 4.62 1 7 C0.67 7 0.34 7 0 7 C0 4.69 0 2.38 0 0 Z " fill="#FFFFFF" transform="translate(840,132)"/>
<path d="M0 0 C0.66 0.66 1.32 1.32 2 2 C1.34 2.66 0.68 3.32 0 4 C0 2.68 0 1.36 0 0 Z " fill="#FFFFFF" transform="translate(258,126)"/>
<path d="M0 0 C1.32 0 2.64 0 4 0 C4 0.66 4 1.32 4 2 C2.68 1.67 1.36 1.34 0 1 C0 0.67 0 0.34 0 0 Z " fill="#FFFFFF" transform="translate(603,123)"/>
<path d="M0 0 C1.65 0 3.3 0 5 0 C3.02 0.99 3.02 0.99 1 2 C0.67 1.34 0.34 0.68 0 0 Z " fill="#FFFFFF" transform="translate(520,122)"/>
<path d="M0 0 C0.99 0.99 1.98 1.98 3 3 C2.01 3.495 2.01 3.495 1 4 C0.67 2.68 0.34 1.36 0 0 Z " fill="#FFFFFF" transform="translate(597,139)"/>
<path d="M0 0 C1.32 0.33 2.64 0.66 4 1 C2.68 1 1.36 1 0 1 C0 0.67 0 0.34 0 0 Z " fill="#FFFFFF" transform="translate(935,139)"/>
<path d="M0 0 C0.66 0.33 1.32 0.66 2 1 C2 1.66 2 2.32 2 3 C1.01 2.67 0.02 2.34 -1 2 C-0.67 1.34 -0.34 0.68 0 0 Z " fill="#FFFFFF" transform="translate(775,135)"/>
<path d="M0 0 C0.33 0.66 0.66 1.32 1 2 C1.66 2 2.32 2 3 2 C2.67 2.66 2.34 3.32 2 4 C1.34 3.67 0.68 3.34 0 3 C0 2.01 0 1.02 0 0 Z " fill="#FFFFFF" transform="translate(517,134)"/>
<path d="M0 0 C1.32 0.33 2.64 0.66 4 1 C3.01 1.33 2.02 1.66 1 2 C0.67 1.34 0.34 0.68 0 0 Z " fill="#FFFFFF" transform="translate(998,125)"/>
<path d="M0 0 C1.32 0 2.64 0 4 0 C4 0.66 4 1.32 4 2 C2.68 1.34 1.36 0.68 0 0 Z " fill="#FFFFFF" transform="translate(349,124)"/>
<path d="M0 0 C1.65 0 3.3 0 5 0 C5 0.33 5 0.66 5 1 C3.35 1 1.7 1 0 1 C0 0.67 0 0.34 0 0 Z " fill="#FFFFFF" transform="translate(454,140)"/>
<path d="M0 0 C0.66 0.33 1.32 0.66 2 1 C0.68 1.33 -0.64 1.66 -2 2 C-1.34 1.34 -0.68 0.68 0 0 Z " fill="#FFFFFF" transform="translate(294,140)"/>
<path d="M0 0 C0.66 0 1.32 0 2 0 C1.67 0.99 1.34 1.98 1 3 C0.67 2.01 0.34 1.02 0 0 Z " fill="#FFFFFF" transform="translate(926,131)"/>
<path d="M0 0 C0.66 0 1.32 0 2 0 C1.67 0.99 1.34 1.98 1 3 C0.67 2.01 0.34 1.02 0 0 Z " fill="#FFFFFF" transform="translate(490,131)"/>
<path d="M0 0 C0.66 0 1.32 0 2 0 C1.67 0.99 1.34 1.98 1 3 C0.67 2.01 0.34 1.02 0 0 Z " fill="#FFFFFF" transform="translate(660,126)"/>
<path d="M0 0 C0.99 0.33 1.98 0.66 3 1 C2.67 1.66 2.34 2.32 2 3 C1.34 2.01 0.68 1.02 0 0 Z " fill="#FFFFFF" transform="translate(787,125)"/>
<path d="M0 0 C0.99 0 1.98 0 3 0 C3 0.66 3 1.32 3 2 C2.01 1.67 1.02 1.34 0 1 C0 0.67 0 0.34 0 0 Z " fill="#FFFFFF" transform="translate(530,123)"/>
<path d="M0 0 C1.32 0.33 2.64 0.66 4 1 C3.01 1.495 3.01 1.495 2 2 C1.34 1.34 0.68 0.68 0 0 Z " fill="#FFFFFF" transform="translate(466,123)"/>
<path d="M0 0 C0.99 0.33 1.98 0.66 3 1 C2.01 1.33 1.02 1.66 0 2 C0 1.34 0 0.68 0 0 Z " fill="#FFFFFF" transform="translate(373,123)"/>
<path d="M0 0 C1.485 0.99 1.485 0.99 3 2 C2.01 2 1.02 2 0 2 C0 1.34 0 0.68 0 0 Z " fill="#FFFFFF" transform="translate(921,140)"/>
<path d="M0 0 C0.66 0.66 1.32 1.32 2 2 C1.01 1.67 0.02 1.34 -1 1 C-0.67 0.67 -0.34 0.34 0 0 Z " fill="#FFFFFF" transform="translate(613,139)"/>
<path d="M0 0 C0.99 0.33 1.98 0.66 3 1 C2.01 1 1.02 1 0 1 C0 0.67 0 0.34 0 0 Z " fill="#FFFFFF" transform="translate(354,140)"/>
<path d="M0 0 C1 4 1 4 1 4 Z " fill="#FFFFFF" transform="translate(672,131)"/>
<path d="M0 0 C0.66 0 1.32 0 2 0 C2 0.66 2 1.32 2 2 C1.34 2 0.68 2 0 2 C0 1.34 0 0.68 0 0 Z " fill="#FFFFFF" transform="translate(269,132)"/>
<path d="M0 0 C0.66 0.33 1.32 0.66 2 1 C1.01 1 0.02 1 -1 1 C-0.67 0.67 -0.34 0.34 0 0 Z " fill="#FFFFFF" transform="translate(733,130)"/>
<path d="" fill="#FFFFFF" transform="translate(0,0)"/>
<path d="M0 0 C0.66 0 1.32 0 2 0 C1.67 0.66 1.34 1.32 1 2 C0.67 1.34 0.34 0.68 0 0 Z " fill="#FFFFFF" transform="translate(609,140)"/>
<path d="M0 0 C3 1 3 1 3 1 Z " fill="#FFFFFF" transform="translate(442,140)"/>
<path d="M0 0 C3 1 3 1 3 1 Z " fill="#FFFFFF" transform="translate(357,140)"/>
<path d="M0 0 C0.66 0.66 1.32 1.32 2 2 C1.34 2 0.68 2 0 2 C0 1.34 0 0.68 0 0 Z " fill="#FFFFFF" transform="translate(886,135)"/>
<path d="" fill="#FFFFFF" transform="translate(0,0)"/>
<path d="" fill="#FFFFFF" transform="translate(0,0)"/>
<path d="" fill="#FFFFFF" transform="translate(0,0)"/>
<path d="M0 0 C0.66 0.66 1.32 1.32 2 2 C1.34 2 0.68 2 0 2 C0 1.34 0 0.68 0 0 Z " fill="#FFFFFF" transform="translate(907,131)"/>
<path d="M0 0 C0.99 0.495 0.99 0.495 2 1 C1.01 1.495 1.01 1.495 0 2 C0 1.34 0 0.68 0 0 Z " fill="#FFFFFF" transform="translate(674,132)"/>
<path d="M0 0 C3 1 3 1 3 1 Z " fill="#FFFFFF" transform="translate(582,124)"/>
<path d="" fill="#FFFFFF" transform="translate(0,0)"/>
<path d="" fill="#FFFFFF" transform="translate(0,0)"/>
<path d="M0 0 C2 1 2 1 2 1 Z " fill="#FFFFFF" transform="translate(408,140)"/>
<path d="M0 0 C2 1 2 1 2 1 Z " fill="#FFFFFF" transform="translate(397,140)"/>
<path d="" fill="#FFFFFF" transform="translate(0,0)"/>
<path d="" fill="#FFFFFF" transform="translate(0,0)"/>
<path d="" fill="#FFFFFF" transform="translate(0,0)"/>
<path d="M0 0 C2 1 2 1 2 1 Z " fill="#FFFFFF" transform="translate(701,124)"/>
<path d="" fill="#FFFFFF" transform="translate(0,0)"/>
<path d="M0 0 C2 1 2 1 2 1 Z " fill="#FFFFFF" transform="translate(154,7)"/>
<path d="" fill="#FFFFFF" transform="translate(0,0)"/>
<path d="" fill="#FFFFFF" transform="translate(0,0)"/>
<path d="" fill="#FFFFFF" transform="translate(0,0)"/>
<path d="" fill="#FFFFFF" transform="translate(0,0)"/>
<path d="" fill="#FFFFFF" transform="translate(0,0)"/>
<path d="" fill="#FFFFFF" transform="translate(0,0)"/>
<path d="" fill="#FFFFFF" transform="translate(0,0)"/>
<path d="" fill="#FFFFFF" transform="translate(0,0)"/>
<path d="" fill="#FFFFFF" transform="translate(0,0)"/>
<path d="" fill="#FFFFFF" transform="translate(0,0)"/>
<path d="" fill="#FFFFFF" transform="translate(0,0)"/>
<path d="" fill="#FFFFFF" transform="translate(0,0)"/>
<path d="" fill="#FFFFFF" transform="translate(0,0)"/>
<path d="" fill="#FFFFFF" transform="translate(0,0)"/>
<path d="" fill="#FFFFFF" transform="translate(0,0)"/>
<path d="" fill="#FFFFFF" transform="translate(0,0)"/>
<path d="" fill="#FFFFFF" transform="translate(0,0)"/>
<path d="" fill="#FFFFFF" transform="translate(0,0)"/>
<path d="" fill="#FFFFFF" transform="translate(0,0)"/>
<path d="" fill="#FFFFFF" transform="translate(0,0)"/>
<path d="" fill="#FFFFFF" transform="translate(0,0)"/>
<path d="" fill="#FFFFFF" transform="translate(0,0)"/>
<path d="" fill="#FFFFFF" transform="translate(0,0)"/>
<path d="" fill="#FFFFFF" transform="translate(0,0)"/>
<path d="" fill="#FFFFFF" transform="translate(0,0)"/>
<path d="" fill="#FFFFFF" transform="translate(0,0)"/>
<path d="" fill="#FFFFFF" transform="translate(0,0)"/>
<path d="" fill="#FFFFFF" transform="translate(0,0)"/>
<path d="" fill="#FFFFFF" transform="translate(0,0)"/>
<path d="" fill="#FFFFFF" transform="translate(0,0)"/>
</svg>
